<?xml version="1.0" encoding="utf-8"?>
<!-- Generator: Adobe Illustrator 17.0.0, SVG Export Plug-In . SVG Version: 6.00 Build 0)  -->
<!DOCTYPE svg PUBLIC "-//W3C//DTD SVG 1.1//EN" "http://www.w3.org/Graphics/SVG/1.1/DTD/svg11.dtd">
<svg version="1.1" id="Слой_1" xmlns="http://www.w3.org/2000/svg" xmlns:xlink="http://www.w3.org/1999/xlink" x="0px" y="0px"
	 width="2000px" height="1218px" viewBox="0 0 2000 1218" enable-background="new 0 0 2000 1218" xml:space="preserve">
<linearGradient id="SVGID_1_" gradientUnits="userSpaceOnUse" x1="140.8424" y1="1136.5553" x2="1854.3844" y2="84.3757">
	<stop  offset="0" style="stop-color:#C1273C"/>
	<stop  offset="1" style="stop-color:#9B1F31"/>
</linearGradient>
<rect fill="url(#SVGID_1_)" width="2000" height="1218"/>
<g>
	<defs>
		<rect id="SVGID_2_" x="8" y="-1.067" width="1885.018" height="1218.13"/>
	</defs>
	<clipPath id="SVGID_3_">
		<use xlink:href="#SVGID_2_"  overflow="visible"/>
	</clipPath>
	<g clip-path="url(#SVGID_3_)">
		<path fill="#C1273C" d="M676.826-85.428c-628.4,0-1139.611,475.321-1139.611,1059.644
			c0,584.267,511.211,1059.635,1139.611,1059.635c628.282,0,1139.493-475.368,1139.493-1059.635
			C1816.318,389.894,1305.108-85.428,676.826-85.428z M65.072,1606.191c18.722-4.126,37.115-8.876,55.103-14.351
			c74.16-22.579,138.133-55.258,192.091-98.259c53.841-42.761,96.381-95.656,127.61-158.166
			c31.3-62.586,46.864-133.135,46.864-211.726v-18.718h0.091V858.991c0-53.816,9.453-100.375,28.156-139.68
			c18.891-39.253,43.628-71.638,74.214-97.092c30.674-25.465,66.362-44.018,107.166-55.605
			c40.981-11.667,84.243-17.48,129.757-17.48c0.303,0,0.721,0,39.735,0v599.801h0.656c3.004,68.543,18.338,130.716,46.172,186.529
			c31.317,62.516,74.487,115.356,129.995,158.117c55.491,43.001,120.301,75.719,194.514,98.307
			c17.058,5.169,34.499,9.633,52.161,13.57c-162.16,136.152-376.932,219.035-612.533,219.035
			C441.513,1824.493,227.093,1741.901,65.072,1606.191z M1470.45,1396.321c-42.389-0.381-83.701-5.99-123.997-17.276
			c-41.53-11.581-78.045-29.744-109.438-54.577c-31.317-24.747-56.461-56.69-75.314-95.959
			c-17.896-37.254-27.021-81.908-27.925-133.473v-121.29h227.557V762.098h-227.557V549.09H866.322V320.047
			c-39.529,0-39.801-0.087-40.196-0.087c-84.485,0-163.299,11.283-236.741,33.821c-73.476,22.577-137.466,55.3-192.147,98.167
			c-54.533,42.946-98.027,94.982-129.977,156.044c-32.038,61.073-47.964,130.931-47.964,209.531v242.546h-0.135v26.527
			c0,55.298-9.361,102.539-28.208,141.873c-18.893,39.256-43.999,71.252-75.396,95.999c-31.305,24.833-67.554,42.91-108.305,54.577
			c-39.936,11.338-81.279,16.981-124.188,17.31c-76.673-124.424-120.709-268.465-120.709-422.139
			c0-469.649,409.382-850.379,914.47-850.379c504.961,0,914.391,380.729,914.391,850.379
			C1591.217,1127.89,1547.184,1271.931,1470.45,1396.321z"/>
	</g>
</g>
</svg>
