<?xml version="1.0" encoding="utf-8"?>
<!-- Generator: Adobe Illustrator 16.0.0, SVG Export Plug-In . SVG Version: 6.00 Build 0)  -->
<!DOCTYPE svg PUBLIC "-//W3C//DTD SVG 1.1//EN" "http://www.w3.org/Graphics/SVG/1.1/DTD/svg11.dtd">
<svg version="1.1" id="Слой_1" xmlns="http://www.w3.org/2000/svg" xmlns:xlink="http://www.w3.org/1999/xlink" x="0px" y="0px"
	 width="780px" height="290px" viewBox="0 0 780 290" enable-background="new 0 0 780 290" xml:space="preserve">
<line fill="none" stroke="#E3ECEE" stroke-miterlimit="10" x1="-1" y1="174.5" x2="780" y2="174.5"/>
<line fill="none" stroke="#E3ECEE" stroke-miterlimit="10" x1="-1" y1="116.5" x2="780" y2="116.5"/>
<line fill="none" stroke="#E3ECEE" stroke-miterlimit="10" x1="-1" y1="58.5" x2="780" y2="58.5"/>
<line fill="none" stroke="#E3ECEE" stroke-miterlimit="10" x1="-1" y1="0.5" x2="780" y2="0.5"/>
<line fill="none" stroke="#E3ECEE" stroke-miterlimit="10" x1="-1" y1="29.5" x2="780" y2="29.5"/>
<line fill="none" stroke="#E3ECEE" stroke-miterlimit="10" x1="-0.5" y1="0" x2="-0.5" y2="290"/>
<line fill="none" stroke="#E3ECEE" stroke-miterlimit="10" x1="29.5" y1="0" x2="29.5" y2="290"/>
<line fill="none" stroke="#E3ECEE" stroke-miterlimit="10" x1="59.5" y1="0" x2="59.5" y2="290"/>
<line fill="none" stroke="#E3ECEE" stroke-miterlimit="10" x1="89.5" y1="0" x2="89.5" y2="290"/>
<line fill="none" stroke="#E3ECEE" stroke-miterlimit="10" x1="119.5" y1="0" x2="119.5" y2="290"/>
<line fill="none" stroke="#E3ECEE" stroke-miterlimit="10" x1="149.5" y1="0" x2="149.5" y2="290"/>
<line fill="none" stroke="#E3ECEE" stroke-miterlimit="10" x1="179.5" y1="0" x2="179.5" y2="290"/>
<line fill="none" stroke="#E3ECEE" stroke-miterlimit="10" x1="209.5" y1="0" x2="209.5" y2="290"/>
<line fill="none" stroke="#E3ECEE" stroke-miterlimit="10" x1="239.5" y1="0" x2="239.5" y2="290"/>
<line fill="none" stroke="#E3ECEE" stroke-miterlimit="10" x1="269.5" y1="0" x2="269.5" y2="290"/>
<line fill="none" stroke="#E3ECEE" stroke-miterlimit="10" x1="299.5" y1="0" x2="299.5" y2="290"/>
<line fill="none" stroke="#E3ECEE" stroke-miterlimit="10" x1="329.5" y1="0" x2="329.5" y2="290"/>
<line fill="none" stroke="#E3ECEE" stroke-miterlimit="10" x1="359.5" y1="0" x2="359.5" y2="290"/>
<line fill="none" stroke="#E3ECEE" stroke-miterlimit="10" x1="389.5" y1="0" x2="389.5" y2="290"/>
<line fill="none" stroke="#E3ECEE" stroke-miterlimit="10" x1="419.5" y1="0" x2="419.5" y2="290"/>
<line fill="none" stroke="#E3ECEE" stroke-miterlimit="10" x1="449.5" y1="0" x2="449.5" y2="290"/>
<line fill="none" stroke="#E3ECEE" stroke-miterlimit="10" x1="479.5" y1="0" x2="479.5" y2="290"/>
<line fill="none" stroke="#E3ECEE" stroke-miterlimit="10" x1="509.5" y1="0" x2="509.5" y2="290"/>
<line fill="none" stroke="#E3ECEE" stroke-miterlimit="10" x1="539.5" y1="0" x2="539.5" y2="290"/>
<line fill="none" stroke="#E3ECEE" stroke-miterlimit="10" x1="569.5" y1="0" x2="569.5" y2="290"/>
<line fill="none" stroke="#E3ECEE" stroke-miterlimit="10" x1="599.5" y1="0" x2="599.5" y2="290"/>
<line fill="none" stroke="#E3ECEE" stroke-miterlimit="10" x1="629.5" y1="0" x2="629.5" y2="290"/>
<line fill="none" stroke="#E3ECEE" stroke-miterlimit="10" x1="659.5" y1="0" x2="659.5" y2="290"/>
<line fill="none" stroke="#E3ECEE" stroke-miterlimit="10" x1="689.5" y1="0" x2="689.5" y2="290"/>
<line fill="none" stroke="#E3ECEE" stroke-miterlimit="10" x1="719.5" y1="0" x2="719.5" y2="290"/>
<line fill="none" stroke="#E3ECEE" stroke-miterlimit="10" x1="749.5" y1="0" x2="749.5" y2="290"/>
<line fill="none" stroke="#E3ECEE" stroke-miterlimit="10" x1="779.5" y1="0" x2="779.5" y2="290"/>
<line fill="none" stroke="#E3ECEE" stroke-miterlimit="10" x1="-1" y1="86.5" x2="780" y2="86.5"/>
<line fill="none" stroke="#E3ECEE" stroke-miterlimit="10" x1="-1" y1="143.5" x2="780" y2="143.5"/>
<line fill="none" stroke="#E3ECEE" stroke-miterlimit="10" x1="-1" y1="204.5" x2="780" y2="204.5"/>
<line fill="none" stroke="#E3ECEE" stroke-miterlimit="10" x1="-1" y1="261.5" x2="780" y2="261.5"/>
<line fill="none" stroke="#E3ECEE" stroke-miterlimit="10" x1="-1" y1="289.5" x2="780" y2="289.5"/>
<line fill="none" stroke="#E3ECEE" stroke-miterlimit="10" x1="-1" y1="230.5" x2="780" y2="230.5"/>
<line fill="none" stroke="#E3ECEE" stroke-miterlimit="10" x1="-1" y1="174.5" x2="780" y2="174.5"/>
<circle opacity="0.8" fill="#A1ABB4" cx="726.024" cy="35.397" r="8.5"/>
<circle opacity="0.8" fill="#808284" cx="726.024" cy="175.116" r="8.5"/>
<circle opacity="0.8" fill="#808284" cx="665.062" cy="204.531" r="8.501"/>
<circle opacity="0.8" fill="#A1ABB4" cx="665.062" cy="181.734" r="8.5"/>
<circle opacity="0.8" fill="#E7372F" cx="665.062" cy="169.969" r="8.5"/>
<circle opacity="0.8" fill="#E7372F" cx="604.1" cy="190.559" r="8.5"/>
<circle opacity="0.8" fill="#A1ABB4" cx="604.099" cy="118.494" r="8.5"/>
<circle opacity="0.8" fill="#808284" cx="604.099" cy="224.386" r="8.5"/>
<circle opacity="0.8" fill="#E7372F" cx="543.137" cy="165.557" r="8.5"/>
<circle opacity="0.8" fill="#A1ABB4" cx="543.136" cy="92.021" r="8.5"/>
<circle opacity="0.8" fill="#A1ABB4" cx="482.174" cy="125.112" r="8.5"/>
<circle opacity="0.8" fill="#A1ABB4" cx="421.211" cy="122.906" r="8.5"/>
<circle opacity="0.8" fill="#808284" cx="421.211" cy="139.819" r="8.5"/>
<circle opacity="0.8" fill="#E7372F" cx="421.211" cy="145.702" r="8.5"/>
<circle opacity="0.8" fill="#E7372F" cx="360.249" cy="149.379" r="8.5"/>
<circle opacity="0.8" fill="#A1ABB4" cx="360.249" cy="145.702" r="8.5"/>
<circle opacity="0.8" fill="#808284" cx="360.249" cy="139.084" r="8.5"/>
<circle opacity="0.8" fill="#E7372F" cx="299.286" cy="170.705" r="8.5"/>
<circle opacity="0.8" fill="#A1ABB4" cx="299.286" cy="133.936" r="8.5"/>
<circle opacity="0.8" fill="#808284" cx="299.286" cy="126.583" r="8.5"/>
<circle opacity="0.8" fill="#E7372F" cx="238.324" cy="195.501" r="8.5"/>
<path opacity="0.8" fill="#A1ABB4" d="M246.824,127.318c0,4.693-3.806,8.5-8.501,8.5c-4.692,0-8.5-3.807-8.5-8.5s3.808-8.5,8.5-8.5
	C243.019,118.818,246.824,122.625,246.824,127.318z"/>
<circle opacity="0.8" fill="#808284" cx="238.324" cy="111.141" r="8.5"/>
<circle opacity="0.8" fill="#808284" cx="177.36" cy="133.936" r="8.5"/>
<circle opacity="0.8" fill="#808284" cx="116.398" cy="181.734" r="8.5"/>
<circle opacity="0.8" fill="#A1ABB4" cx="116.398" cy="169.969" r="8.5"/>
<rect x="9.315" y="239.017" fill="none" width="70.727" height="10.806"/>
<text transform="matrix(1 0 0 1 9.3145 248.9844)" fill="#5B6163" font-family="'PlumbMediumC'" font-size="14">8 000.-</text>
<rect x="9.315" y="183.017" fill="none" width="57.896" height="10.806"/>
<text transform="matrix(1 0 0 1 9.3145 192.9844)" fill="#5B6163" font-family="'PlumbMediumC'" font-size="14">11 000.-</text>
<rect x="9.315" y="125.017" fill="none" width="59.364" height="10.806"/>
<text transform="matrix(1 0 0 1 9.3145 134.9844)" fill="#5B6163" font-family="'PlumbMediumC'" font-size="14">14 000.-</text>
<rect x="9.315" y="67.017" fill="none" width="59.364" height="10.806"/>
<text transform="matrix(1 0 0 1 9.3145 76.9844)" fill="#5B6163" font-family="'PlumbMediumC'" font-size="14">17 000.-</text>
<rect x="9.315" y="9.017" fill="none" width="59.364" height="10.806"/>
<text transform="matrix(1 0 0 1 9.3145 18.9844)" fill="#5B6163" font-family="'PlumbMediumC'" font-size="14">20 000.-</text>
<rect x="105" y="271" fill="none" width="82.482" height="14"/>
<text transform="matrix(1 0 0 1 105 280.9678)" fill="#5B6163" font-family="'PlumbMediumC'" font-size="14">Июнь 2013</text>
<rect x="676.939" y="271" fill="none" width="60.482" height="11"/>
<text transform="matrix(1 0 0 1 676.9395 280.9678)" fill="#5B6163" font-family="'PlumbMediumC'" font-size="14">Май 2014</text>
</svg>
