<?xml version="1.0" encoding="utf-8"?>
<!-- Generator: Adobe Illustrator 16.0.0, SVG Export Plug-In . SVG Version: 6.00 Build 0)  -->
<!DOCTYPE svg PUBLIC "-//W3C//DTD SVG 1.1//EN" "http://www.w3.org/Graphics/SVG/1.1/DTD/svg11.dtd">
<svg version="1.1" id="Слой_1" xmlns="http://www.w3.org/2000/svg" xmlns:xlink="http://www.w3.org/1999/xlink" x="0px" y="0px"
	 width="61px" height="76px" viewBox="0 0 61 76" enable-background="new 0 0 61 76" xml:space="preserve">
<g>
	<g>
		<g>
			<path fill="#E8385A" d="M61.093,30.725c0-16.922-13.618-30.644-30.429-30.678l0,0c-0.011,0-0.025,0-0.036,0
				c-0.011,0-0.021,0-0.032,0l0,0C13.784,0.081,0.167,13.802,0.167,30.724c0,5.259,1.318,10.203,3.632,14.528H3.795l0.008,0.009
				l3.925,5.644L21.924,71.32c1.856,2.836,5.046,4.708,8.672,4.736v0.006c0.01,0,0.021-0.006,0.032-0.006
				c0.015,0,0.023,0.006,0.036,0.006v-0.006c3.626-0.028,6.814-1.9,8.671-4.736l14.197-20.416l3.922-5.644l0.007-0.009h-0.005
				C59.774,40.928,61.093,35.983,61.093,30.725z M30.627,41.081c-5.583,0-10.112-4.551-10.112-10.174
				c0-5.616,4.529-10.175,10.112-10.175c5.586,0,10.113,4.559,10.113,10.175C40.74,36.53,36.213,41.081,30.627,41.081z"/>
		</g>
	</g>
	<g>
		<path fill="#D82343" d="M61.088,30.725c0-16.922-13.619-30.644-30.43-30.678c-0.01,0-0.025,0-0.036,0c-0.011,0-0.021,0-0.032,0
			v20.688c0.011,0,0.021-0.001,0.032-0.001c5.585,0,10.113,4.559,10.113,10.175c0,5.622-4.528,10.173-10.113,10.173
			c-0.011,0-0.021-0.002-0.032-0.002v34.978v0.006c0.011,0,0.021-0.006,0.032-0.006c0.015,0,0.023,0.006,0.036,0.006v-0.006
			c3.627-0.028,6.814-1.9,8.671-4.736l14.197-20.416l3.922-5.644l0.008-0.009h-0.005C59.77,40.928,61.088,35.983,61.088,30.725z"/>
	</g>
</g>
</svg>
