<?xml version="1.0" encoding="utf-8"?>
<!-- Generator: Adobe Illustrator 17.0.0, SVG Export Plug-In . SVG Version: 6.00 Build 0)  -->
<!DOCTYPE svg PUBLIC "-//W3C//DTD SVG 1.1//EN" "http://www.w3.org/Graphics/SVG/1.1/DTD/svg11.dtd">
<svg version="1.1" id="Слой_1" xmlns="http://www.w3.org/2000/svg" xmlns:xlink="http://www.w3.org/1999/xlink" x="0px" y="0px"
	 width="94px" height="94.664px" viewBox="0 0 94 94.664" enable-background="new 0 0 94 94.664" xml:space="preserve">
<g opacity="0.8">
	<path fill="#9197A1" d="M57.5,66.5"/>
	<path fill="#9197A1" d="M30.847,94.664c-1.246,0-2.485-0.515-3.375-1.521c-1.646-1.863-1.469-4.707,0.395-6.352L55.942,62h24.086
		C82.942,62,85,59.328,85,56.283V14.881C85,11.803,82.892,9,80.027,9H15.102C12.223,9,9,11.858,9,14.881v41.402
		C9,59.275,12.17,62,15.102,62H24.5c2.485,0,4.5,2.015,4.5,4.5S26.985,71,24.5,71h-9.398C7.187,71,0,64.261,0,56.283V14.881
		C0,6.814,7.187,0,15.102,0h64.926C87.872,0,94,6.814,94,14.881v41.402C94,64.261,87.872,71,80.027,71H59.346L33.823,93.537
		C32.968,94.293,31.904,94.664,30.847,94.664z"/>
</g>
</svg>
