<?xml version="1.0" encoding="utf-8"?>
<!-- Generator: Adobe Illustrator 16.0.0, SVG Export Plug-In . SVG Version: 6.00 Build 0)  -->
<!DOCTYPE svg PUBLIC "-//W3C//DTD SVG 1.1//EN" "http://www.w3.org/Graphics/SVG/1.1/DTD/svg11.dtd">
<svg version="1.1" id="Слой_1" xmlns="http://www.w3.org/2000/svg" xmlns:xlink="http://www.w3.org/1999/xlink" x="0px" y="0px"
	 width="20px" height="20px" viewBox="0 0 20 20" enable-background="new 0 0 20 20" xml:space="preserve">
<g>
	<path fill="#F9F9FB" d="M3.044,19.476c-1.403,0-2.544-1.141-2.544-2.543V3.019c0-1.402,1.141-2.543,2.544-2.543h13.912
		c1.402,0,2.544,1.141,2.544,2.543v13.914c0,1.402-1.142,2.543-2.544,2.543H3.044z"/>
	<g>
		<path fill="#D8DEE2" d="M16.956,0.976C18.083,0.976,19,1.892,19,3.019v13.914c0,1.127-0.917,2.043-2.044,2.043H3.044
			C1.917,18.976,1,18.06,1,16.933V3.019c0-1.126,0.917-2.043,2.044-2.043H16.956 M16.956-0.024H3.044C1.363-0.024,0,1.338,0,3.019
			v13.914c0,1.681,1.363,3.043,3.044,3.043h13.912c1.681,0,3.044-1.362,3.044-3.043V3.019C20,1.338,18.637-0.024,16.956-0.024
			L16.956-0.024z"/>
	</g>
</g>
<polyline fill="none" stroke="#D8DEE2" stroke-width="2.5" stroke-miterlimit="10" points="4.727,8.876 8.439,12.59 15.498,5.487 
	"/>
</svg>
