<?xml version="1.0" encoding="utf-8"?>
<!-- Generator: Adobe Illustrator 16.0.0, SVG Export Plug-In . SVG Version: 6.00 Build 0)  -->
<!DOCTYPE svg PUBLIC "-//W3C//DTD SVG 1.1//EN" "http://www.w3.org/Graphics/SVG/1.1/DTD/svg11.dtd">
<svg version="1.1" id="Слой_1" xmlns="http://www.w3.org/2000/svg" xmlns:xlink="http://www.w3.org/1999/xlink" x="0px" y="0px"
	 width="24px" height="15px" viewBox="0 0 24 15" enable-background="new 0 0 24 15" xml:space="preserve">
<g>
	<g>
		<path fill="#FFFFFF" d="M12.008,14.521C4.731,14.521,1.18,8.677,0.539,7.5c0.639-1.177,4.179-7.021,11.455-7.021
			c7.291,0,10.828,5.843,11.467,7.021C22.82,8.676,19.271,14.521,12.008,14.521z"/>
		<path fill="#D8DEE2" d="M11.994,0.957c6.717,0,10.068,5.032,10.922,6.539c-0.856,1.486-4.26,6.547-10.908,6.547
			c-6.719,0-10.071-5.033-10.924-6.54C1.937,6.018,5.333,0.957,11.994,0.957 M11.994,0C3.529,0,0,7.5,0,7.5S3.542,15,12.008,15
			C20.458,15,24,7.5,24,7.5S20.458,0,11.994,0L11.994,0z"/>
	</g>
	<g>
		<path fill="#FFFFFF" d="M12,10.54c-1.749,0-3.171-1.446-3.171-3.223c0-1.777,1.422-3.222,3.171-3.222
			c1.75,0,3.174,1.445,3.174,3.222C15.174,9.094,13.75,10.54,12,10.54z"/>
		<path fill="#D8DEE2" d="M12,4.949c1.279,0,2.319,1.063,2.319,2.369c0,1.306-1.04,2.368-2.319,2.368
			c-1.278,0-2.317-1.063-2.317-2.368C9.683,6.011,10.722,4.949,12,4.949 M12,3.241c-2.223,0-4.025,1.825-4.025,4.076
			S9.777,11.394,12,11.394c2.223,0,4.027-1.825,4.027-4.076C16.027,5.067,14.223,3.241,12,3.241L12,3.241z"/>
	</g>
</g>
</svg>
