<?xml version="1.0" encoding="utf-8"?>
<!-- Generator: Adobe Illustrator 16.0.0, SVG Export Plug-In . SVG Version: 6.00 Build 0)  -->
<!DOCTYPE svg PUBLIC "-//W3C//DTD SVG 1.1//EN" "http://www.w3.org/Graphics/SVG/1.1/DTD/svg11.dtd">
<svg version="1.1" id="Слой_1" xmlns="http://www.w3.org/2000/svg" xmlns:xlink="http://www.w3.org/1999/xlink" x="0px" y="0px"
	 width="24px" height="15px" viewBox="0 0 24 15" enable-background="new 0 0 24 15" xml:space="preserve">
<g>
	<g>
		<path fill="#FFFFFF" d="M12.008,14.563c-7.295,0-10.833-5.864-11.469-7.042c0.637-1.177,4.176-7.042,11.456-7.042
			c7.276,0,10.827,5.864,11.467,7.042C22.821,8.7,19.272,14.563,12.008,14.563z"/>
		<path fill="#C2C7D1" d="M11.994,0.957c6.725,0,10.076,5.059,10.925,6.564c-0.85,1.507-4.2,6.564-10.911,6.564
			c-6.722,0-10.074-5.053-10.925-6.561C1.934,6.038,5.329,0.957,11.994,0.957 M11.994,0C3.528,0,0,7.521,0,7.521
			s3.542,7.521,12.008,7.521C20.458,15.042,24,7.521,24,7.521S20.458,0,11.994,0L11.994,0z"/>
	</g>
	<g>
		<path fill="#FFFFFF" d="M12,10.572c-1.749,0-3.171-1.451-3.171-3.234S10.251,4.104,12,4.104c1.75,0,3.174,1.45,3.174,3.233
			S13.75,10.572,12,10.572z"/>
		<path fill="#C2C7D1" d="M12,4.958c1.279,0,2.319,1.068,2.319,2.38c0,1.313-1.04,2.38-2.319,2.38c-1.278,0-2.317-1.067-2.317-2.38
			C9.683,6.026,10.722,4.958,12,4.958 M12,3.25c-2.223,0-4.025,1.83-4.025,4.087c0,2.258,1.802,4.088,4.025,4.088
			c2.224,0,4.027-1.83,4.027-4.088C16.027,5.082,14.224,3.25,12,3.25L12,3.25z"/>
	</g>
</g>
</svg>
