<?xml version="1.0" encoding="utf-8"?>
<!-- Generator: Adobe Illustrator 16.0.0, SVG Export Plug-In . SVG Version: 6.00 Build 0)  -->
<!DOCTYPE svg PUBLIC "-//W3C//DTD SVG 1.1//EN" "http://www.w3.org/Graphics/SVG/1.1/DTD/svg11.dtd">
<svg version="1.1" id="Слой_1" xmlns="http://www.w3.org/2000/svg" xmlns:xlink="http://www.w3.org/1999/xlink" x="0px" y="0px"
	 width="18px" height="18px" viewBox="0 0 18 18" enable-background="new 0 0 18 18" xml:space="preserve">
<g>
	<path fill="#F9F9FB" d="M9.02,17.512c-4.689,0-8.503-3.837-8.503-8.553S4.331,0.405,9.02,0.405c4.689,0,8.504,3.837,8.504,8.553
		S13.709,17.512,9.02,17.512z"/>
	<g>
		<path fill="#D8DEE2" d="M9.02,0.905c4.413,0,8.004,3.613,8.004,8.053c0,4.441-3.591,8.053-8.004,8.053s-8.003-3.612-8.003-8.053
			C1.016,4.518,4.606,0.905,9.02,0.905 M9.02-0.095c-4.972,0-9.003,4.054-9.003,9.053c0,4.999,4.032,9.053,9.003,9.053
			s9.004-4.055,9.004-9.053C18.023,3.959,13.991-0.095,9.02-0.095L9.02-0.095z"/>
	</g>
</g>
</svg>
