<?xml version="1.0" encoding="utf-8"?>
<!-- Generator: Adobe Illustrator 16.0.0, SVG Export Plug-In . SVG Version: 6.00 Build 0)  -->
<!DOCTYPE svg PUBLIC "-//W3C//DTD SVG 1.1//EN" "http://www.w3.org/Graphics/SVG/1.1/DTD/svg11.dtd">
<svg version="1.1" id="Слой_1" xmlns="http://www.w3.org/2000/svg" xmlns:xlink="http://www.w3.org/1999/xlink" x="0px" y="0px"
	 width="18px" height="18px" viewBox="0 0 18 18" enable-background="new 0 0 18 18" xml:space="preserve">
<g>
	<path fill="#F9F9FB" d="M9,17.55c-4.714,0-8.55-3.835-8.55-8.55c0-4.714,3.835-8.55,8.55-8.55c4.715,0,8.55,3.835,8.55,8.55
		C17.55,13.715,13.715,17.55,9,17.55z"/>
	<g>
		<path fill="#D8DEE2" d="M9,0.9c4.467,0,8.1,3.634,8.1,8.1c0,4.467-3.633,8.1-8.1,8.1c-4.466,0-8.1-3.633-8.1-8.1
			C0.9,4.534,4.534,0.9,9,0.9 M9,0C4.03,0,0,4.03,0,9s4.03,9,9,9s9-4.03,9-9S13.97,0,9,0L9,0z"/>
	</g>
</g>
<g>
	<circle fill="#D8DEE2" cx="9" cy="9" r="4"/>
</g>
</svg>
