<?xml version="1.0" encoding="utf-8"?>
<!-- Generator: Adobe Illustrator 16.0.0, SVG Export Plug-In . SVG Version: 6.00 Build 0)  -->
<!DOCTYPE svg PUBLIC "-//W3C//DTD SVG 1.1//EN" "http://www.w3.org/Graphics/SVG/1.1/DTD/svg11.dtd">
<svg version="1.1" id="Слой_1" xmlns="http://www.w3.org/2000/svg" xmlns:xlink="http://www.w3.org/1999/xlink" x="0px" y="0px"
	 width="20px" height="20px" viewBox="0 0 20 20" enable-background="new 0 0 20 20" xml:space="preserve">
<g>
	<path fill="#CA2647" d="M20,4.025c0-1.681-1.363-3.043-3.044-3.043H3.044C1.363,0.982,0,2.344,0,4.025v12.915
		c0,1.68,1.363,3.043,3.044,3.043h13.912c1.681,0,3.044-1.363,3.044-3.043V4.025z"/>
</g>
<g>
	<path fill="#E8385A" d="M20,3.231c0-1.681-1.363-3.043-3.044-3.043H3.044C1.363,0.188,0,1.55,0,3.231V15.66
		c0,1.682,1.363,3.043,3.044,3.043h13.912c1.681,0,3.044-1.361,3.044-3.043V3.231z"/>
</g>
<polyline fill="none" stroke="#FFFFFF" stroke-width="2.5" stroke-miterlimit="10" points="4.727,8.876 8.439,12.59 15.498,5.487 
	"/>
</svg>
