<?xml version="1.0" encoding="utf-8"?>
<!-- Generator: Adobe Illustrator 16.0.0, SVG Export Plug-In . SVG Version: 6.00 Build 0)  -->
<!DOCTYPE svg PUBLIC "-//W3C//DTD SVG 1.1//EN" "http://www.w3.org/Graphics/SVG/1.1/DTD/svg11.dtd">
<svg version="1.1" id="Слой_1" xmlns="http://www.w3.org/2000/svg" xmlns:xlink="http://www.w3.org/1999/xlink" x="0px" y="0px"
	 width="20px" height="20px" viewBox="0 0 20 20" enable-background="new 0 0 20 20" xml:space="preserve">
<g>
	<path fill="#F9F9FB" d="M3.048,19.423c-1.397,0-2.534-1.123-2.534-2.504V3.185c0-1.381,1.137-2.504,2.534-2.504h13.866
		c1.397,0,2.534,1.123,2.534,2.504v13.734c0,1.381-1.137,2.504-2.534,2.504H3.048z"/>
	<g>
		<path fill="#D8DEE2" d="M16.914,1.181c1.122,0,2.034,0.899,2.034,2.004v13.734c0,1.104-0.912,2.004-2.034,2.004H3.048
			c-1.122,0-2.034-0.899-2.034-2.004V3.185c0-1.105,0.912-2.004,2.034-2.004H16.914 M16.914,0.181H3.048
			c-1.675,0-3.034,1.345-3.034,3.004v13.734c0,1.66,1.359,3.004,3.034,3.004h13.866c1.676,0,3.034-1.344,3.034-3.004V3.185
			C19.948,1.525,18.59,0.181,16.914,0.181L16.914,0.181z"/>
	</g>
</g>
</svg>
