<?xml version="1.0" encoding="utf-8"?>
<!-- Generator: Adobe Illustrator 17.0.0, SVG Export Plug-In . SVG Version: 6.00 Build 0)  -->
<!DOCTYPE svg PUBLIC "-//W3C//DTD SVG 1.1//EN" "http://www.w3.org/Graphics/SVG/1.1/DTD/svg11.dtd">
<svg version="1.1" id="Слой_1" xmlns="http://www.w3.org/2000/svg" xmlns:xlink="http://www.w3.org/1999/xlink" x="0px" y="0px"
	 width="54px" height="18px" viewBox="0 0 54 18" enable-background="new 0 0 54 18" xml:space="preserve">
<g>
	
		<line fill="none" stroke="#909AA5" stroke-width="2" stroke-linecap="round" stroke-linejoin="round" stroke-miterlimit="10" x1="9" y1="13" x2="15" y2="13"/>
</g>
<g>
	
		<line fill="none" stroke="#909AA5" stroke-width="2" stroke-linecap="round" stroke-linejoin="round" stroke-miterlimit="10" x1="9" y1="10" x2="15" y2="10"/>
</g>
<g>
	
		<line fill="none" stroke="#909AA5" stroke-width="2" stroke-linecap="round" stroke-linejoin="round" stroke-miterlimit="10" x1="9" y1="7" x2="15" y2="7"/>
</g>
<g>
	<path fill="none" stroke="#909AA5" stroke-width="2" stroke-linecap="round" stroke-linejoin="round" stroke-miterlimit="10" d="
		M16.897,17C18.059,17,19,16.059,19,14.898V3.102C19,1.941,18.059,1,16.897,1H7.102C5.941,1,5,1.941,5,3.102"/>
</g>
<g>
	
		<line fill="none" stroke="#909AA5" stroke-width="2" stroke-linecap="round" stroke-linejoin="round" stroke-miterlimit="10" x1="5" y1="17" x2="5" y2="3"/>
</g>
<g>
	<path fill="none" stroke="#909AA5" stroke-width="2" stroke-linecap="round" stroke-linejoin="round" stroke-miterlimit="10" d="
		M17,17H3.102C1.941,17,1,16.059,1,14.898V7.102C1,5.941,1.941,5,3.102,5H5"/>
</g>
<g>
	
		<line fill="none" stroke="#EC1646" stroke-width="2" stroke-linecap="round" stroke-linejoin="round" stroke-miterlimit="10" x1="43" y1="13" x2="49" y2="13"/>
</g>
<g>
	
		<line fill="none" stroke="#EC1646" stroke-width="2" stroke-linecap="round" stroke-linejoin="round" stroke-miterlimit="10" x1="43" y1="10" x2="49" y2="10"/>
</g>
<g>
	
		<line fill="none" stroke="#EC1646" stroke-width="2" stroke-linecap="round" stroke-linejoin="round" stroke-miterlimit="10" x1="43" y1="7" x2="49" y2="7"/>
</g>
<g>
	<path fill="none" stroke="#EC1646" stroke-width="2" stroke-linecap="round" stroke-linejoin="round" stroke-miterlimit="10" d="
		M50.897,17C52.059,17,53,16.059,53,14.898V3.102C53,1.941,52.059,1,50.897,1h-9.795C39.941,1,39,1.941,39,3.102"/>
</g>
<g>
	
		<line fill="none" stroke="#EC1646" stroke-width="2" stroke-linecap="round" stroke-linejoin="round" stroke-miterlimit="10" x1="39" y1="17" x2="39" y2="3"/>
</g>
<g>
	<path fill="none" stroke="#EC1646" stroke-width="2" stroke-linecap="round" stroke-linejoin="round" stroke-miterlimit="10" d="
		M51,17H37.103C35.941,17,35,16.059,35,14.898V7.102C35,5.941,35.941,5,37.103,5H39"/>
</g>
</svg>
