<?xml version="1.0" encoding="utf-8"?>
<!-- Generator: Adobe Illustrator 16.0.0, SVG Export Plug-In . SVG Version: 6.00 Build 0)  -->
<!DOCTYPE svg PUBLIC "-//W3C//DTD SVG 1.1//EN" "http://www.w3.org/Graphics/SVG/1.1/DTD/svg11.dtd">
<svg version="1.1" id="Слой_1" xmlns="http://www.w3.org/2000/svg" xmlns:xlink="http://www.w3.org/1999/xlink" x="0px" y="0px"
	 width="29px" height="25px" viewBox="0 0 29 25" enable-background="new 0 0 29 25" xml:space="preserve">
<g>
	<path fill="#FFFFFF" d="M25.98,2H24l0,0c0-1.104-0.896-2-2-2s-2,0.896-2,2l0,0H9l0,0c0-1.104-0.896-2-2-2S5,0.896,5,2l0,0H3.344
		C1.663,2,0,3.362,0,5.043v16.914C0,23.638,1.663,25,3.344,25H25.98c1.682,0,3.02-1.362,3.02-3.043V5.043C29,3.362,27.662,2,25.98,2
		z"/>
	<path fill="#929AA4" d="M22,2c0,1.104,0.896,2,2,2h1.98C26.557,4,27,4.468,27,5.043v16.914C27,22.532,26.557,23,25.98,23H3.344
		C2.769,23,2,22.532,2,21.957V5.043C2,4.468,2.769,4,3.344,4H5c1.104,0,2-0.896,2-2c0,1.104,0.896,2,2,2h11
		c1.104,0,1.997-0.896,1.997-2H22 M22,0c-1.104,0-2,0.896-2,2H9c0-1.104-0.896-2-2-2S5,0.896,5,2H3.344C1.663,2,0,3.362,0,5.043
		v16.914C0,23.638,1.663,25,3.344,25H25.98c1.682,0,3.02-1.362,3.02-3.043V5.043C29,3.362,27.662,2,25.98,2H24
		C24,0.896,23.104,0,22,0L22,0z"/>
</g>
<g>
	<path fill="#B5C1CC" d="M23,20H6c-0.553,0-1-0.447-1-1s0.447-1,1-1h17c0.553,0,1,0.447,1,1S23.553,20,23,20z"/>
</g>
<g>
	<path fill="#B5C1CC" d="M23,16H6c-0.553,0-1-0.447-1-1s0.447-1,1-1h17c0.553,0,1,0.447,1,1S23.553,16,23,16z"/>
</g>
<g>
	<path fill="#B5C1CC" d="M23,12H6c-0.553,0-1-0.448-1-1s0.447-1,1-1h17c0.553,0,1,0.448,1,1S23.553,12,23,12z"/>
</g>
<path fill="#929AA4" d="M23.796,3c0-1.024-0.83-1.854-1.854-1.854S20.087,1.976,20.087,3H8.796c0-1.024-0.83-1.854-1.854-1.854
	S5.087,1.976,5.087,3H1v4h27V3H23.796z"/>
</svg>
