<?xml version="1.0" encoding="utf-8"?>
<!-- Generator: Adobe Illustrator 17.0.0, SVG Export Plug-In . SVG Version: 6.00 Build 0)  -->
<!DOCTYPE svg PUBLIC "-//W3C//DTD SVG 1.1//EN" "http://www.w3.org/Graphics/SVG/1.1/DTD/svg11.dtd">
<svg version="1.1" id="Слой_1" xmlns="http://www.w3.org/2000/svg" xmlns:xlink="http://www.w3.org/1999/xlink" x="0px" y="0px"
	 width="65.445px" height="29.386px" viewBox="0 0 65.445 29.386" enable-background="new 0 0 65.445 29.386" xml:space="preserve">
<g>
	<polyline fill="#A1A8B1" points="0,6.088 0,10.036 3.909,10.036 3.909,29.281 7.772,29.281 7.772,6.088 0,6.088 	"/>
	<polyline fill="#A1A8B1" points="3.894,0 3.894,3.949 9.476,3.949 9.476,29.386 13.34,29.386 13.34,0 3.894,0 	"/>
	<path fill="#A1A8B1" d="M65.445,19.361L31.18,19.354c-0.044,0.002-0.085,0.007-0.129,0.007c-2.443,0-4.425-1.981-4.425-4.426
		c0-2.444,1.982-4.427,4.425-4.427c2.446,0,4.426,1.982,4.426,4.427c0,0.194-0.016,0.384-0.041,0.571H39.4
		c0.013-0.189,0.028-0.379,0.028-0.571c0-4.628-3.75-8.378-8.378-8.378c-4.626,0-8.378,3.75-8.378,8.378
		c0,4.627,3.752,8.378,8.378,8.378c0.097,0,0.192-0.006,0.288-0.011h34.106V19.361"/>
	<path fill="#A1A8B1" d="M31.528,25.441v-0.007c-0.09,0.005-0.179,0.005-0.268,0.007h-0.102v0.003
		c-0.036,0.001-0.071,0.002-0.107,0.002c-5.805,0-10.511-4.706-10.511-10.511c0-5.806,4.706-10.513,10.511-10.513
		S41.564,9.13,41.564,14.936c0,0.185-0.006,0.367-0.016,0.551h3.872c0.008-0.184,0.015-0.366,0.015-0.551
		c0-7.944-6.44-14.385-14.385-14.385c-7.944,0-14.383,6.44-14.383,14.385c0,7.943,6.439,14.384,14.383,14.384
		c0.036,0,0.071-0.002,0.107-0.003v0.009h34.287v-3.884H31.528"/>
	<g>
		<g>
			<path fill="#A1A8B1" d="M18.984,9.729"/>
		</g>
	</g>
</g>
</svg>
