<?xml version="1.0" encoding="utf-8"?>
<!-- Generator: Adobe Illustrator 17.0.0, SVG Export Plug-In . SVG Version: 6.00 Build 0)  -->
<!DOCTYPE svg PUBLIC "-//W3C//DTD SVG 1.1//EN" "http://www.w3.org/Graphics/SVG/1.1/DTD/svg11.dtd">
<svg version="1.1" id="Слой_1" xmlns="http://www.w3.org/2000/svg" xmlns:xlink="http://www.w3.org/1999/xlink" x="0px" y="0px"
	 width="192.758px" height="34.384px" viewBox="0 0 192.758 34.384" enable-background="new 0 0 192.758 34.384"
	 xml:space="preserve">
<g>
	<path fill="#A1A8B1" d="M14.233,7.839l1.273,3.055c0.245-0.086,0.494-0.157,0.749-0.217l0.017-2.211
		c0.569-0.109,1.155-0.168,1.754-0.168c0.567,0,1.121,0.053,1.659,0.151l0.018,2.216c0.252,0.06,0.499,0.129,0.74,0.213l1.278-3.072
		c-1.153-0.421-2.396-0.662-3.695-0.662C16.691,7.143,15.418,7.397,14.233,7.839"/>
	<path fill="#A1A8B1" d="M10.354,10.321c-0.942,0.943-1.662,2.025-2.187,3.172l3.031,1.251c0.114-0.238,0.243-0.469,0.382-0.694
		l-1.531-1.555c0.327-0.479,0.699-0.934,1.123-1.357c0.4-0.401,0.829-0.757,1.279-1.068l1.563,1.54
		c0.22-0.137,0.448-0.266,0.682-0.38l-1.259-3.054C12.323,8.693,11.275,9.401,10.354,10.321"/>
	<path fill="#A1A8B1" d="M7.182,17.923c0,1.336,0.256,2.61,0.696,3.791l2.986-1.24c-0.088-0.255-0.163-0.516-0.223-0.781
		l-2.138-0.015c-0.108-0.568-0.167-1.156-0.167-1.755c0-0.565,0.055-1.118,0.15-1.66l2.176-0.015
		c0.063-0.256,0.137-0.507,0.223-0.755l-3.042-1.267C7.425,15.382,7.182,16.623,7.182,17.923"/>
	<path fill="#A1A8B1" d="M13.467,27.779l1.226-2.976c-0.245-0.12-0.481-0.254-0.711-0.396l-1.516,1.49
		c-0.478-0.326-0.934-0.701-1.358-1.124c-0.4-0.399-0.755-0.827-1.064-1.277l1.516-1.54c-0.138-0.225-0.263-0.457-0.377-0.697
		L8.146,22.51c0.521,1.115,1.226,2.163,2.147,3.081C11.237,26.535,12.318,27.255,13.467,27.779"/>
	<path fill="#A1A8B1" d="M24.812,14.768l3.012-1.241c-0.523-1.147-1.243-2.229-2.188-3.174c-0.92-0.92-1.968-1.627-3.082-2.144
		l-1.246,3.023c0.238,0.118,0.468,0.248,0.692,0.387l1.539-1.517c0.451,0.314,0.88,0.665,1.28,1.066
		c0.424,0.426,0.797,0.88,1.122,1.359l-1.514,1.534C24.568,14.289,24.697,14.523,24.812,14.768"/>
	<path fill="#A1A8B1" d="M28.808,17.955c0-1.301-0.242-2.542-0.663-3.695l-3.024,1.259c0.089,0.248,0.161,0.503,0.223,0.763
		l2.159,0.017c0.097,0.538,0.149,1.092,0.149,1.657c0,0.601-0.059,1.185-0.168,1.754l-2.133,0.017
		c-0.061,0.263-0.137,0.523-0.224,0.776l2.983,1.244C28.554,20.565,28.808,19.291,28.808,17.955"/>
	<path fill="#A1A8B1" d="M25.697,25.622c0.919-0.92,1.625-1.967,2.145-3.081l-3.038-1.252c-0.114,0.237-0.243,0.468-0.379,0.691
		l1.524,1.548c-0.315,0.45-0.667,0.88-1.067,1.28c-0.426,0.422-0.88,0.797-1.358,1.122l-1.529-1.508
		c-0.227,0.141-0.462,0.273-0.704,0.392l1.234,2.998C23.672,27.288,24.751,26.567,25.697,25.622"/>
	<path fill="#A1A8B1" d="M17.28,13.117c0.242-0.045,0.492-0.067,0.745-0.067c0.225,0,0.441,0.021,0.656,0.054l0.011,1.048
		c0.173,0.03,0.338,0.082,0.502,0.135l0.619-1.489c-0.563-0.195-1.156-0.323-1.788-0.323c-0.663,0-1.291,0.137-1.877,0.35
		l0.615,1.481c0.164-0.056,0.328-0.113,0.503-0.147L17.28,13.117z"/>
	<path fill="#A1A8B1" d="M14.054,15.069c0.141-0.2,0.3-0.394,0.479-0.572c0.158-0.159,0.325-0.299,0.499-0.426l0.744,0.723
		c0.142-0.099,0.295-0.181,0.452-0.262l-0.61-1.481c-0.537,0.261-1.048,0.592-1.492,1.036c-0.47,0.47-0.816,1.009-1.079,1.577
		l1.482,0.611c0.077-0.159,0.156-0.314,0.25-0.46L14.054,15.069z"/>
	<path fill="#A1A8B1" d="M13.172,18.715c-0.042-0.24-0.065-0.488-0.065-0.743c0-0.223,0.019-0.439,0.053-0.652l1.039-0.016
		c0.029-0.173,0.078-0.341,0.129-0.504l-1.476-0.615c-0.194,0.561-0.323,1.156-0.323,1.787c0,0.663,0.137,1.291,0.352,1.88
		l1.485-0.619c-0.059-0.166-0.119-0.328-0.154-0.502L13.172,18.715z"/>
	<path fill="#A1A8B1" d="M15.101,21.899c-0.2-0.143-0.393-0.301-0.572-0.479c-0.158-0.157-0.297-0.325-0.425-0.5l0.733-0.751
		c-0.1-0.142-0.179-0.298-0.257-0.448l-1.494,0.614c0.261,0.536,0.59,1.048,1.037,1.493c0.47,0.469,1.005,0.816,1.576,1.079
		l0.613-1.487c-0.158-0.078-0.316-0.153-0.463-0.25L15.101,21.899z"/>
	<path fill="#A1A8B1" d="M21.02,14.071c0.175,0.127,0.344,0.267,0.503,0.426c0.179,0.178,0.336,0.372,0.478,0.572l-0.753,0.774
		c0.092,0.142,0.169,0.294,0.242,0.449l1.52-0.627c-0.265-0.568-0.61-1.107-1.079-1.577c-0.446-0.444-0.957-0.775-1.495-1.036
		l-0.617,1.499c0.151,0.082,0.3,0.163,0.438,0.263L21.02,14.071z"/>
	<path fill="#A1A8B1" d="M22.894,17.319c0.034,0.214,0.055,0.43,0.055,0.652c0,0.255-0.025,0.503-0.066,0.743l-1.081,0.018
		c-0.034,0.167-0.097,0.323-0.152,0.483l1.523,0.636c0.216-0.591,0.352-1.217,0.352-1.88c0-0.63-0.127-1.226-0.321-1.787
		l-1.514,0.629c0.049,0.161,0.095,0.32,0.124,0.49L22.894,17.319z"/>
	<path fill="#A1A8B1" d="M21.95,20.92c-0.128,0.175-0.267,0.343-0.425,0.5c-0.18,0.179-0.373,0.337-0.572,0.479l-0.769-0.748
		c-0.142,0.098-0.297,0.172-0.45,0.251l0.621,1.505c0.569-0.263,1.109-0.61,1.578-1.079c0.443-0.446,0.774-0.957,1.034-1.495
		l-1.527-0.628c-0.075,0.15-0.149,0.301-0.244,0.439L21.95,20.92z"/>
	<polygon fill="#A1A8B1" points="4.086,27.372 4.086,27.372 6.358,25.083 	"/>
	<path fill="#A1A8B1" d="M4.082,8.584c1.203-1.77,2.736-3.296,4.511-4.49l2.31,2.288c0.434-0.265,0.883-0.508,1.348-0.724
		l-1.681-4.077C9.578,2.036,8.622,2.577,7.706,3.212C6.86,3.8,6.049,4.465,5.294,5.22c-0.78,0.781-1.468,1.619-2.07,2.498
		c-0.631,0.921-1.171,1.885-1.618,2.879l4.041,1.666c0.219-0.467,0.461-0.92,0.729-1.357L4.082,8.584z"/>
	<path fill="#A1A8B1" d="M1.508,21.164c-0.2-1.035-0.313-2.099-0.313-3.188c0-1.086,0.112-2.146,0.31-3.174l3.259-0.018
		c0.123-0.503,0.273-0.995,0.449-1.474L1.157,11.62c-0.382,1.023-0.675,2.09-0.872,3.188C0.104,15.818,0.002,16.858,0,17.925
		c0.002,1.104,0.108,2.184,0.304,3.23c0.204,1.099,0.504,2.159,0.892,3.178l4.002-1.663c-0.175-0.485-0.327-0.981-0.448-1.491
		L1.508,21.164z"/>
	<path fill="#A1A8B1" d="M8.6,31.861c-1.775-1.192-3.309-2.72-4.514-4.489l2.272-2.289c-0.268-0.438-0.512-0.89-0.729-1.36
		l-4.054,1.674c0.45,0.991,0.997,1.949,1.631,2.863c0.588,0.848,1.253,1.655,2.007,2.41c0.781,0.782,1.619,1.469,2.498,2.071
		c0.92,0.633,1.884,1.172,2.881,1.618l1.649-4.001c-0.473-0.221-0.932-0.468-1.371-0.741L8.6,31.861z"/>
	<path fill="#A1A8B1" d="M27.358,4.172c1.766,1.21,3.286,2.747,4.476,4.526l-2.199,2.222c0.268,0.44,0.511,0.892,0.731,1.362
		l4.027-1.658c-0.447-0.995-0.984-1.961-1.615-2.88c-0.604-0.88-1.291-1.719-2.072-2.5c-0.752-0.753-1.56-1.417-2.405-2.003
		c-0.917-0.637-1.877-1.183-2.869-1.637l-1.675,4.057c0.468,0.218,0.921,0.463,1.358,0.731L27.358,4.172z"/>
	<path fill="#A1A8B1" d="M14.794,1.554c1.013-0.193,2.056-0.303,3.125-0.303c1.107,0,2.189,0.112,3.237,0.318l0.018,3.191
		c0.509,0.121,1.002,0.27,1.485,0.447l1.672-4.014c-1.021-0.389-2.086-0.689-3.182-0.891C20.102,0.106,19.024,0.002,17.919,0
		c-1.065,0.002-2.105,0.104-3.118,0.284c-1.097,0.199-2.164,0.491-3.187,0.876l1.692,4.06c0.477-0.174,0.969-0.325,1.469-0.445
		L14.794,1.554z"/>
	<path fill="#A1A8B1" d="M35.715,14.832c-0.199-1.099-0.489-2.164-0.872-3.188l-4.049,1.686c0.177,0.481,0.328,0.971,0.449,1.476
		l3.095,0.02c0.194,1.021,0.306,2.07,0.306,3.15c0,1.1-0.115,2.172-0.321,3.21l-3.076,0.018c-0.121,0.509-0.273,1.004-0.452,1.488
		l4.01,1.669c0.389-1.02,0.691-2.084,0.895-3.183C35.894,20.132,36,19.054,36,17.949C36,16.884,35.897,15.843,35.715,14.832"/>
	<path fill="#A1A8B1" d="M31.807,27.296c-1.194,1.777-2.724,3.303-4.493,4.508l-2.197-2.177c-0.439,0.27-0.894,0.517-1.366,0.736
		l1.659,4.021c0.996-0.446,1.959-0.985,2.879-1.616c0.879-0.603,1.719-1.288,2.499-2.071c0.753-0.752,1.416-1.561,2.003-2.405
		c0.637-0.917,1.183-1.876,1.636-2.87l-4.063-1.676c-0.218,0.467-0.462,0.919-0.729,1.355L31.807,27.296z"/>
	<polygon fill="#A1A8B1" points="53.262,15.38 54.379,10.61 60.634,10.644 60.634,12.905 59.266,13.14 59.904,21.587 61.274,21.819 
		61.274,23.847 55.3,23.847 55.3,21.819 56.335,21.587 56.059,17.718 56.151,12.669 56.095,12.669 55.083,17.512 53.756,23.847 
		50.379,23.847 48.777,17.956 47.808,12.664 47.775,12.664 47.711,17.718 47.459,21.587 48.494,21.819 48.494,23.847 43.771,23.847 
		43.771,21.819 45.141,21.587 45.779,13.14 44.354,12.896 44.353,10.644 50.567,10.641 51.539,15.344 52.328,20.245 52.36,20.245 	
		"/>
	<polygon fill="#A1A8B1" points="89.545,17.636 90.616,14.196 95.738,14.202 95.738,16.268 94.781,16.599 95.147,21.456 
		96.203,21.816 96.203,23.834 91.128,23.834 91.128,21.816 91.832,21.456 91.683,19.359 91.757,16.268 91.715,16.268 90.862,19.457 
		89.63,23.834 86.646,23.834 85.354,19.535 84.679,16.241 84.653,16.241 84.674,19.359 84.522,21.642 85.244,21.816 85.244,23.834 
		81.619,23.834 81.619,21.816 82.655,21.642 83.04,16.595 82.046,16.261 82.042,14.204 87.147,14.196 88.013,17.621 88.665,20.904 
		88.688,20.904 	"/>
	<path fill="#A1A8B1" d="M121.91,20.826c0.289,0.316,0.922,0.624,1.526,0.624c1.224,0,1.641-0.977,1.641-2.664
		c0-1.833-0.38-2.803-1.569-2.803c-1.333,0-1.598,1.58-1.598,2.729V20.826z M118.677,16.506l-1.212-0.237v-2.029h4.154l-0.33,1.841
		h0.229c0.645-1.782,2.133-2.119,3.159-2.119c2.966,0,3.752,2.246,3.752,4.775c0,2.935-1.178,5.288-3.879,5.288
		c-1.051,0-1.979-0.411-2.594-0.958h-0.035v1.248l1.185,0.235v2.021h-5.642V24.55l1.212-0.235V16.506z"/>
	<path fill="#A1A8B1" d="M164.629,20.826c0.291,0.316,0.893,0.624,1.525,0.624c1.224,0,1.645-0.977,1.645-2.664
		c0-1.833-0.382-2.803-1.569-2.803c-1.336,0-1.601,1.58-1.601,2.729V20.826z M161.394,16.506l-1.209-0.237v-2.029h4.157
		l-0.335,1.841h0.229c0.644-1.782,2.134-2.119,3.161-2.119c2.963,0,3.752,2.246,3.752,4.775c0,2.935-1.181,5.288-3.877,5.288
		c-1.051,0-1.982-0.411-2.594-0.958h-0.037v1.248l1.186,0.235v2.021h-5.643V24.55l1.209-0.235V16.506z"/>
	<path fill="#A1A8B1" d="M132.492,18.866c0,2.179,0.508,3.016,1.499,3.016c0.977,0,1.483-0.837,1.483-2.999
		c0-2.161-0.507-3.02-1.501-3.02C133,15.862,132.492,16.722,132.492,18.866 M133.974,14.021c3.036,0,4.85,2.088,4.85,5.041
		c0,2.897-1.866,5.025-4.85,5.025c-2.968,0-4.834-2.128-4.834-5.025C129.14,16.108,130.956,14.021,133.974,14.021"/>
	<path fill="#A1A8B1" d="M175.277,18.88c0,2.182,0.503,3.017,1.501,3.017c0.977,0,1.482-0.835,1.482-2.999
		c0-2.162-0.505-3.021-1.501-3.021C175.78,15.877,175.277,16.735,175.277,18.88 M176.76,14.021c3.036,0,4.849,2.088,4.849,5.041
		c0,2.897-1.865,5.025-4.849,5.025c-2.966,0-4.833-2.128-4.833-5.025C171.927,16.108,173.741,14.021,176.76,14.021"/>
	<polygon fill="#A1A8B1" points="106.542,14.208 106.542,18.031 108.991,18.031 109.225,16.235 110.148,16.235 110.148,21.46 
		109.117,21.816 109.117,23.847 114.42,23.847 114.42,21.816 113.393,21.46 113.393,16.235 114.281,16.235 114.514,18.031 
		116.964,18.031 116.964,14.208 	"/>
	<polygon fill="#A1A8B1" points="149.217,14.208 149.217,18.031 151.669,18.031 151.901,16.235 152.823,16.235 152.823,21.46 
		151.794,21.816 151.794,23.847 157.095,23.847 157.095,21.816 156.068,21.46 156.068,16.235 156.957,16.235 157.189,18.031 
		159.642,18.031 159.642,14.208 	"/>
	<path fill="#A1A8B1" d="M143.015,18.911c0-1.543,0.266-2.815,1.499-2.815c1.119,0,1.347,1.031,1.347,1.852h2.686v-3.725h-2.479
		v0.816h-0.035c-0.688-0.834-1.611-0.964-2.302-0.964c-2.789,0-4.064,2.05-4.067,4.886h-0.009c0,3.072,1.228,5.115,4.701,5.115
		c1.734,0,3.171-0.749,4.346-1.457l-0.904-1.978c-1.08,0.5-2.083,0.689-2.879,0.689C143.458,21.329,143.015,20.38,143.015,18.911"/>
	<path fill="#A1A8B1" d="M64.809,18.866c0,2.179,0.506,3.016,1.501,3.016c0.975,0,1.483-0.837,1.483-2.999
		c0-2.161-0.509-3.02-1.503-3.02C65.314,15.862,64.809,16.722,64.809,18.866 M66.29,14.021c3.037,0,4.851,2.088,4.851,5.041
		c0,2.897-1.868,5.025-4.851,5.025c-2.966,0-4.831-2.128-4.831-5.025C61.459,16.108,63.273,14.021,66.29,14.021"/>
	<path fill="#A1A8B1" d="M75.2,18.911c0-1.543,0.266-2.815,1.5-2.815c1.118,0,1.345,1.031,1.345,1.852h2.685v-3.725h-2.475v0.816
		h-0.036c-0.688-0.834-1.611-0.964-2.304-0.964c-2.788,0-4.06,2.05-4.066,4.886h-0.008c0,3.072,1.227,5.115,4.7,5.115
		c1.733,0,3.175-0.749,4.345-1.457l-0.903-1.978c-1.079,0.5-2.083,0.689-2.88,0.689C75.645,21.329,75.2,20.38,75.2,18.911"/>
	<path fill="#A1A8B1" d="M186.277,10.612c0.144,0.685,0.591,1.076,1.246,1.076c0.67,0,1.08-0.462,1.237-1.066l2.381,0.753
		c-0.766,1.49-1.929,2.253-3.634,2.253c-1.957,0-3.266-0.979-3.68-2.32L186.277,10.612z M186.211,19.292l2.536-5.055h4.011v2.041
		l-1.089,0.328v4.866l1.089,0.323v2.043h-5.023v-2.043l0.693-0.323v-2.605h-0.088l-2.627,4.971h-3.945V21.83l1.091-0.328v-4.896
		l-1.091-0.328v-2.041h5.027v2.041l-0.694,0.328v2.686H186.211z"/>
	<path fill="#A1A8B1" d="M102.86,18.151c0-0.662-0.052-2.215-1.383-2.215c-1.461,0-1.516,1.817-1.516,2.215H102.86z M106.099,22.401
		c-1.167,0.887-2.709,1.683-4.494,1.683c-3.49,0-4.887-2.096-4.887-5.077c0-2.948,1.815-4.986,4.817-4.986
		c3.241,0,4.567,2.142,4.567,5.212c0,0.261-0.015,0.423-0.032,0.595h-6.108c0,1.027,0.625,1.563,2.03,1.563
		c1.075,0,2.003-0.283,3.076-0.79L106.099,22.401z"/>
	<path fill="#A1A8B1" d="M15.197,29.901l0.456-2.079h4.611l0.438,2.079H15.197z M16.199,25.327h3.534l0.312,1.47h-4.167
		L16.199,25.327z M16.601,23.505h2.746l0.233,1.098h-3.22L16.601,23.505z M16.922,22.042h2.114l0.2,0.941h-2.523L16.922,22.042z
		 M17.102,21.216l0.07-0.263h1.62l0.07,0.272l0.094,0.439h-1.952L17.102,21.216z M17.418,20.09h1.368
		c-0.032,0.165-0.049,0.347-0.039,0.552h-0.008h-0.011H17.24h-0.011C17.274,20.434,17.342,20.255,17.418,20.09 M23.573,32.573
		v-0.426L19.46,21.485c-0.556-1.485-0.164-2.527,0.953-2.818l-0.057-0.004c-0.267,0-1.206,0.285-1.509,1.236l-0.003-0.009
		l-0.004,0.035c-0.003,0.007-0.007,0.017-0.01,0.024h-1.345c0.649-1.214,1.998-1.277,2.025-1.287H19.34
		c-0.042,0.016-1.893,0.013-2.459,1.85l-0.178,0.453l-4.406,11.182v0.426h0.507v0.391l-0.507,0.971v0.426h0.916h1.006l0.638-2.902
		h6.179l0.616,2.902h1.417h0.505v-0.426l-0.508-0.971v-0.391H23.573z"/>
</g>
</svg>
