<?xml version="1.0" encoding="utf-8"?>
<!-- Generator: Adobe Illustrator 17.0.0, SVG Export Plug-In . SVG Version: 6.00 Build 0)  -->
<!DOCTYPE svg PUBLIC "-//W3C//DTD SVG 1.1//EN" "http://www.w3.org/Graphics/SVG/1.1/DTD/svg11.dtd">
<svg version="1.1" id="Слой_1" xmlns="http://www.w3.org/2000/svg" xmlns:xlink="http://www.w3.org/1999/xlink" x="0px" y="0px"
	 width="356.668px" height="62.278px" viewBox="0 0 356.668 62.278" enable-background="new 0 0 356.668 62.278"
	 xml:space="preserve">
<g>
	<g>
		<g>
			<g>
				<path fill="#2F292B" d="M83.564,29.863c-0.829-0.31-1.863-0.518-2.931-0.518c-2.517,0-4.034,1.139-4.034,3.068
					c0,1.518,1.069,2.484,3,2.758l2.896,0.416c4.48,0.654,6.584,2.86,6.584,7.032c0,4.689-3.586,7.516-9.48,7.516
					c-1.931,0-3.724-0.311-5.275-0.965c-1.207-0.482-1.896-0.966-3.311-2.277l3.104-3.102c0.896,0.792,1.311,1.069,2.138,1.413
					c1.104,0.449,2.311,0.656,3.759,0.656c2.861,0,4.377-1.035,4.377-3.07c0-1.724-0.896-2.62-2.93-2.895l-2.966-0.415
					c-4.309-0.585-6.515-2.895-6.515-6.791c0-4.654,3.344-7.515,8.791-7.515c1.621,0,3.206,0.275,4.551,0.792
					c1.138,0.447,1.793,0.896,3.137,2.069l-3.034,2.999C84.633,30.346,84.254,30.139,83.564,29.863z"/>
				<path fill="#2F292B" d="M103.322,29.656v20.272h-4.793V29.656h-6.412v-4.273h17.617v4.273
					C109.734,29.656,103.322,29.656,103.322,29.656z"/>
				<path fill="#2F292B" d="M127.01,49.928l-4.791-9.792h-3.449v9.792h-4.791V25.382h9.619c4.688,0,7.963,3.102,7.963,7.515
					c0,2-0.688,3.654-2.068,4.965c-0.654,0.619-1.137,0.965-2.413,1.481l5.481,10.585C132.561,49.928,127.01,49.928,127.01,49.928z
					 M123.287,36.138c2.068,0,3.482-1.311,3.482-3.24c0-1.931-1.414-3.242-3.482-3.242h-4.518v6.482
					C118.769,36.138,123.287,36.138,123.287,36.138z"/>
				<path fill="#2F292B" d="M151.734,47.446c-1.726,1.793-3.965,2.689-6.621,2.689c-2.654,0-4.93-0.931-6.652-2.689
					c-2.588-2.654-2.414-6.723-2.414-9.446v-1.346c0-4.895,0.518-6.86,2.414-8.79c1.723-1.759,3.998-2.689,6.652-2.689
					c2.621,0,4.896,0.93,6.621,2.689c1.723,1.758,2.447,4.102,2.447,8.065v1.724C154.182,41.171,154.354,44.722,151.734,47.446z
					 M148.182,30.759c-0.758-0.862-1.826-1.309-3.068-1.309s-2.344,0.448-3.102,1.309c-1.103,1.207-1.172,3.516-1.172,6.55
					c0,3-0.138,5.93,1.172,7.241c0.827,0.827,1.86,1.311,3.102,1.311s2.311-0.45,3.068-1.311c1.001-1.138,1.207-2.345,1.207-7.343
					C149.389,33.173,149.146,31.828,148.182,30.759z"/>
				<path fill="#2F292B" d="M168.458,39.862v10.066h-4.757V39.862l-7.378-14.48h5.206l4.585,9.894l4.517-9.894h5.207L168.458,39.862
					z"/>
				<path fill="#2F292B" d="M188.525,29.656v20.272h-4.791V29.656h-6.412v-4.273h17.617v4.273
					C194.939,29.656,188.525,29.656,188.525,29.656z"/>
				<path fill="#2F292B" d="M213.354,47.446c-1.724,1.793-3.965,2.689-6.619,2.689c-2.656,0-4.932-0.931-6.654-2.689
					c-2.586-2.654-2.414-6.723-2.414-9.446v-1.346c0-4.895,0.518-6.86,2.414-8.79c1.723-1.759,3.998-2.689,6.654-2.689
					c2.619,0,4.896,0.93,6.619,2.689c1.723,1.758,2.447,4.102,2.447,8.065v1.724C215.801,41.171,215.973,44.722,213.354,47.446z
					 M209.801,30.759c-0.758-0.862-1.826-1.309-3.066-1.309c-1.242,0-2.346,0.448-3.104,1.309c-1.104,1.207-1.172,3.516-1.172,6.55
					c0,3-0.139,5.93,1.172,7.241c0.827,0.827,1.861,1.311,3.104,1.311c1.24,0,2.309-0.45,3.066-1.311
					c1.001-1.138,1.207-2.345,1.207-7.343C211.008,33.173,210.768,31.828,209.801,30.759z"/>
				<path fill="#2F292B" d="M234.076,49.928l-4.791-9.792h-3.449v9.792h-4.791V25.382h9.619c4.689,0,7.963,3.102,7.963,7.515
					c0,2-0.688,3.654-2.068,4.965c-0.654,0.619-1.137,0.965-2.412,1.481l5.48,10.585C239.627,49.928,234.076,49.928,234.076,49.928z
					 M230.354,36.138c2.068,0,3.482-1.311,3.482-3.24c0-1.931-1.414-3.242-3.482-3.242h-4.518v6.482
					C225.836,36.138,230.354,36.138,230.354,36.138z"/>
				<path fill="#2F292B" d="M261.283,39.793c0,3.722-0.621,5.722-2.276,7.515c-1.724,1.828-4.138,2.827-6.827,2.827
					c-2.619,0-4.929-0.931-6.652-2.689c-1.104-1.138-1.932-2.724-2.104-4.069c-0.138-0.999-0.31-2.895-0.31-5.723v-1
					c0-4.895,0.518-6.86,2.414-8.79c1.758-1.829,3.963-2.689,6.757-2.689c1.517,0,2.827,0.207,3.966,0.688
					c1.205,0.482,1.895,1,3.411,2.447l-3.24,3.241c-1.103-1.067-1.518-1.413-2.31-1.757c-0.518-0.207-1.207-0.345-1.897-0.345
					c-1.31,0-2.378,0.448-3.137,1.309c-0.517,0.551-0.862,1.311-0.931,2c-0.137,1.068-0.241,2.689-0.241,4.895v0.689
					c0,3.862,0.241,5.207,1.172,6.24c0.759,0.862,1.793,1.277,3.069,1.277c2.689,0,4.344-1.827,4.344-4.725v-0.861h-4.344v-3.998
					h9.137v3.518H261.283z"/>
				<path fill="#2F292B" d="M266.251,49.928V25.382h4.792v24.546H266.251z"/>
			</g>
		</g>
		
			<linearGradient id="SVGID_1_" gradientUnits="userSpaceOnUse" x1="9.1514" y1="8.2253" x2="53.1692" y2="52.243" gradientTransform="matrix(1 0 0 -1 -0.02 61.373)">
			<stop  offset="0" style="stop-color:#F13357"/>
			<stop  offset="0.1523" style="stop-color:#E02D4F"/>
			<stop  offset="0.3512" style="stop-color:#D22849"/>
			<stop  offset="0.5938" style="stop-color:#CA2545"/>
			<stop  offset="1" style="stop-color:#C72444"/>
		</linearGradient>
		<path fill="url(#SVGID_1_)" d="M31.141,0C13.97,0,0,13.967,0,31.14c0,17.17,13.97,31.138,31.141,31.138S62.28,48.309,62.28,31.14
			C62.279,13.967,48.312,0,31.141,0z M14.426,49.712c0.51-0.122,1.013-0.261,1.504-0.421c2.027-0.664,3.776-1.624,5.25-2.887
			c1.472-1.258,2.634-2.812,3.487-4.649c0.855-1.84,1.28-3.912,1.28-6.222v-0.55h0.002v-7.228c0-1.582,0.259-2.951,0.771-4.105
			c0.515-1.153,1.191-2.106,2.027-2.854c0.838-0.748,1.814-1.293,2.929-1.635c1.12-0.341,2.301-0.512,3.544-0.512
			c0.01,0,0.021,0,1.088,0v17.625h0.018c0.082,2.014,0.5,3.842,1.261,5.482c0.855,1.836,2.036,3.389,3.552,4.646
			c1.518,1.263,3.287,2.225,5.317,2.888c0.466,0.151,0.942,0.283,1.425,0.4c-4.432,4-10.301,6.435-16.74,6.435
			C24.713,56.126,18.853,53.701,14.426,49.712z M52.828,43.544c-1.158-0.011-2.286-0.176-3.386-0.508
			c-1.138-0.339-2.134-0.873-2.991-1.604c-0.857-0.727-1.545-1.665-2.059-2.818c-0.489-1.096-0.736-2.409-0.764-3.924v-3.564h6.22
			v-6.219h-6.22v-6.261H36.32v-6.731c-1.079,0-1.089-0.002-1.1-0.002c-2.307,0-4.462,0.332-6.469,0.994
			c-2.007,0.663-3.754,1.625-5.25,2.885c-1.491,1.262-2.678,2.792-3.553,4.586c-0.874,1.794-1.311,3.848-1.311,6.158v7.126h-0.002
			v0.78c0,1.625-0.258,3.013-0.773,4.169c-0.515,1.153-1.201,2.094-2.06,2.821c-0.855,0.731-1.846,1.262-2.961,1.604
			c-1.09,0.333-2.221,0.499-3.391,0.509c-2.098-3.657-3.301-7.889-3.301-12.405c0-13.802,11.187-24.991,24.988-24.991
			S56.125,17.338,56.125,31.14C56.129,35.656,54.926,39.888,52.828,43.544z"/>
	</g>
	<g enable-background="new    ">
		<path fill="#2F292B" d="M283.405,30.43c0.033,0.862,0.083,1.227,0.282,1.691c0.397,0.979,1.193,1.46,2.338,1.46
			c0.432,0,0.797-0.066,1.128-0.199c0.365-0.149,0.581-0.315,1.062-0.763l0.631,0.497c-0.581,0.564-0.862,0.763-1.344,0.962
			c-0.432,0.183-0.929,0.266-1.51,0.266c-2.255,0-3.433-1.41-3.433-4.146c0-2.521,1.211-4.047,3.201-4.047s3.201,1.476,3.201,3.897
			v0.382H283.405z M287.967,28.605c-0.315-1.078-1.145-1.708-2.206-1.708c-0.929,0-1.709,0.514-2.073,1.344
			c-0.183,0.414-0.249,0.763-0.282,1.509h4.71C288.082,29.119,288.065,28.92,287.967,28.605z"/>
	</g>
	<g enable-background="new    ">
		<path fill="#2F292B" d="M291.7,34.244v-11.81h0.846v11.81H291.7z"/>
	</g>
	<g enable-background="new    ">
		<path fill="#2F292B" d="M295.731,30.43c0.033,0.862,0.083,1.227,0.282,1.691c0.398,0.979,1.194,1.46,2.339,1.46
			c0.431,0,0.796-0.066,1.128-0.199c0.364-0.149,0.58-0.315,1.062-0.763l0.63,0.497c-0.58,0.564-0.862,0.763-1.343,0.962
			c-0.432,0.183-0.93,0.266-1.51,0.266c-2.256,0-3.434-1.41-3.434-4.146c0-2.521,1.211-4.047,3.201-4.047s3.201,1.476,3.201,3.897
			v0.382H295.731z M300.293,28.605c-0.315-1.078-1.145-1.708-2.206-1.708c-0.929,0-1.708,0.514-2.073,1.344
			c-0.183,0.414-0.249,0.763-0.282,1.509h4.711C300.409,29.119,300.393,28.92,300.293,28.605z"/>
	</g>
	<g enable-background="new    ">
		<path fill="#2F292B" d="M307.129,34.344c-2.223,0-3.566-1.543-3.566-4.097c0-2.555,1.344-4.097,3.566-4.097
			c1.194,0,1.774,0.381,2.587,1.227l-0.58,0.531c-0.598-0.646-1.111-1.012-2.023-1.012c-0.929,0-1.676,0.365-2.156,1.062
			c-0.398,0.563-0.548,1.211-0.548,2.306c0,1.062,0.149,1.725,0.548,2.272c0.497,0.713,1.211,1.062,2.14,1.062
			s1.426-0.349,2.04-1.012l0.58,0.53C308.92,33.962,308.323,34.344,307.129,34.344z"/>
	</g>
	<g enable-background="new    ">
		<path fill="#2F292B" d="M314.329,34.244c-1.194,0-1.924-0.796-1.924-2.09V26.88h-1.095v-0.63h1.095v-2.555h0.846v2.555h1.808v0.63
			h-1.808v5.291c0,0.879,0.414,1.327,1.228,1.327h0.58v0.746H314.329z"/>
	</g>
	<g enable-background="new    ">
		<path fill="#2F292B" d="M322.093,27.527c-0.515-0.48-0.846-0.63-1.46-0.63c-1.31,0-2.189,0.979-2.189,2.422v4.926h-0.846V26.25
			h0.846v1.062c0.199-0.282,0.299-0.398,0.498-0.548c0.498-0.398,1.145-0.613,1.874-0.613c0.382,0,0.747,0.066,1.062,0.198
			c0.299,0.116,0.465,0.232,0.829,0.564L322.093,27.527z"/>
	</g>
	<g enable-background="new    ">
		<path fill="#2F292B" d="M328.778,33.465c-0.563,0.563-1.344,0.879-2.223,0.879s-1.658-0.315-2.223-0.879
			c-0.696-0.697-0.995-1.676-0.995-3.218c0-1.543,0.299-2.521,0.995-3.218c0.564-0.564,1.344-0.879,2.223-0.879
			c2.057,0,3.218,1.459,3.218,4.047C329.773,31.789,329.475,32.751,328.778,33.465z M328.215,27.577
			c-0.415-0.431-1.028-0.68-1.659-0.68c-0.63,0-1.244,0.249-1.658,0.68c-0.515,0.531-0.714,1.261-0.714,2.671
			c0,1.409,0.183,2.123,0.714,2.67c0.414,0.432,1.028,0.681,1.658,0.681c0.631,0,1.244-0.249,1.659-0.681
			c0.514-0.53,0.713-1.261,0.713-2.637C328.928,28.837,328.745,28.124,328.215,27.577z"/>
	</g>
	<g enable-background="new    ">
		<path fill="#2F292B" d="M337.836,34.244v-4.959c0-1.543-0.779-2.389-2.206-2.389c-1.426,0-2.256,0.879-2.256,2.389v4.959h-0.846
			V26.25h0.846v0.945c0.415-0.432,0.614-0.581,0.996-0.764c0.414-0.198,0.862-0.281,1.376-0.281c1.809,0,2.936,1.145,2.936,2.985
			v5.108H337.836z"/>
	</g>
	<g enable-background="new    ">
		<path fill="#2F292B" d="M342.233,23.579c-0.348,0-0.63-0.282-0.63-0.613c0-0.349,0.282-0.631,0.613-0.631
			c0.332,0,0.631,0.282,0.631,0.598C342.848,23.297,342.565,23.579,342.233,23.579z M341.803,34.244V26.25h0.846v7.994H341.803z"/>
	</g>
	<g enable-background="new    ">
		<path fill="#2F292B" d="M348.969,34.344c-2.223,0-3.565-1.543-3.565-4.097c0-2.555,1.343-4.097,3.565-4.097
			c1.194,0,1.775,0.381,2.588,1.227l-0.581,0.531c-0.597-0.646-1.111-1.012-2.023-1.012c-0.929,0-1.675,0.365-2.156,1.062
			c-0.397,0.563-0.547,1.211-0.547,2.306c0,1.062,0.149,1.725,0.547,2.272c0.498,0.713,1.211,1.062,2.14,1.062
			s1.427-0.349,2.04-1.012l0.581,0.53C350.761,33.962,350.163,34.344,348.969,34.344z"/>
	</g>
	<g enable-background="new    ">
		<path fill="#2F292B" d="M286.175,41.628c2.057,0,3.052,1.343,3.052,4.113c0,2.72-1.012,4.08-3.035,4.08
			c-1.211,0-1.741-0.365-2.322-1.128v4.843h-0.846V41.728h0.846v1.028C284.5,41.959,285.014,41.628,286.175,41.628z M286.125,42.374
			c-1.559,0-2.256,1.028-2.256,3.351s0.681,3.351,2.256,3.351c1.56,0,2.256-1.028,2.256-3.334
			C288.381,43.403,287.701,42.374,286.125,42.374z"/>
	</g>
	<g enable-background="new    ">
		<path fill="#2F292B" d="M291.982,49.722v-11.81h0.846v11.81H291.982z"/>
	</g>
	<g enable-background="new    ">
		<path fill="#2F292B" d="M300.74,49.722v-0.796c-0.414,0.381-0.613,0.53-0.945,0.663c-0.397,0.166-0.861,0.232-1.525,0.232
			c-1.924,0-2.902-0.779-2.902-2.306c0-1.427,1.045-2.289,2.786-2.289h2.587v-0.896c0-1.36-0.713-1.957-2.322-1.957
			c-0.547,0-0.994,0.083-1.359,0.266c-0.299,0.166-0.465,0.314-0.779,0.746l-0.613-0.531c0.397-0.497,0.613-0.68,0.994-0.879
			c0.465-0.231,1.029-0.348,1.791-0.348c2.074,0,3.136,0.879,3.136,2.62v5.474H300.74z M298.253,45.908
			c-1.36,0-2.04,0.53-2.04,1.608c0,1.095,0.663,1.56,2.173,1.56c1.675,0,2.354-0.631,2.354-2.14v-1.028H298.253z"/>
	</g>
	<g enable-background="new    ">
		<path fill="#2F292B" d="M306.863,49.722c-1.194,0-1.924-0.796-1.924-2.09v-5.274h-1.095v-0.63h1.095v-2.555h0.846v2.555h1.808
			v0.63h-1.808v5.291c0,0.879,0.414,1.327,1.228,1.327h0.58v0.746H306.863z"/>
	</g>
	<g enable-background="new    ">
		<path fill="#2F292B" d="M311.227,42.358v7.364h-0.846v-7.364h-1.095v-0.63h1.095v-1.726c0-1.294,0.729-2.09,1.924-2.09h0.73v0.746
			h-0.581c-0.813,0-1.228,0.448-1.228,1.327v1.742h1.809v0.63H311.227z"/>
	</g>
	<g enable-background="new    ">
		<path fill="#2F292B" d="M319.836,48.943c-0.563,0.563-1.344,0.879-2.223,0.879s-1.658-0.315-2.223-0.879
			c-0.696-0.697-0.995-1.676-0.995-3.218c0-1.543,0.299-2.521,0.995-3.218c0.564-0.564,1.344-0.879,2.223-0.879
			c2.057,0,3.218,1.459,3.218,4.047C320.831,47.267,320.532,48.229,319.836,48.943z M319.272,43.054
			c-0.415-0.431-1.028-0.68-1.659-0.68c-0.63,0-1.244,0.249-1.658,0.68c-0.515,0.531-0.714,1.261-0.714,2.671
			c0,1.409,0.183,2.123,0.714,2.67c0.414,0.432,1.028,0.681,1.658,0.681c0.631,0,1.244-0.249,1.659-0.681
			c0.514-0.53,0.713-1.261,0.713-2.637C319.985,44.315,319.803,43.602,319.272,43.054z"/>
	</g>
	<g enable-background="new    ">
		<path fill="#2F292B" d="M328.081,43.004c-0.515-0.48-0.846-0.63-1.46-0.63c-1.31,0-2.189,0.979-2.189,2.422v4.926h-0.846v-7.994
			h0.846v1.062c0.199-0.282,0.299-0.398,0.498-0.548c0.498-0.398,1.145-0.613,1.874-0.613c0.382,0,0.747,0.066,1.062,0.198
			c0.299,0.116,0.465,0.232,0.829,0.564L328.081,43.004z"/>
	</g>
	<g enable-background="new    ">
		<path fill="#2F292B" d="M340.987,49.722v-4.959c0-1.543-0.78-2.389-2.189-2.389c-1.394,0-2.272,0.862-2.272,2.239v5.108h-0.846
			v-4.959c0-1.543-0.78-2.389-2.206-2.389c-1.427,0-2.256,0.879-2.256,2.389v4.959h-0.846v-7.994h0.846v0.945
			c0.415-0.432,0.597-0.581,1.012-0.764c0.415-0.182,0.862-0.281,1.36-0.281c0.796,0,1.492,0.231,1.99,0.696
			c0.232,0.216,0.348,0.365,0.58,0.763c0.299-0.431,0.448-0.597,0.714-0.796c0.563-0.448,1.227-0.663,2.007-0.663
			c1.808,0,2.952,1.145,2.952,2.985v5.108H340.987z"/>
	</g>
</g>
</svg>
