<?xml version="1.0" encoding="utf-8"?>
<!-- Generator: Adobe Illustrator 17.0.0, SVG Export Plug-In . SVG Version: 6.00 Build 0)  -->
<!DOCTYPE svg PUBLIC "-//W3C//DTD SVG 1.1//EN" "http://www.w3.org/Graphics/SVG/1.1/DTD/svg11.dtd">
<svg version="1.1" id="Слой_1" xmlns="http://www.w3.org/2000/svg" xmlns:xlink="http://www.w3.org/1999/xlink" x="0px" y="0px"
	 width="2076.676px" height="95px" viewBox="0 0 2076.676 95" enable-background="new 0 0 2076.676 95" xml:space="preserve">
<g id="Слой_1_1_">
</g>
<g id="Слой_2">
	<path id="path241_2_" fill="#909AA5" d="M15.668,40.759l12.177-34h9.722v34H15.668z M39.567,40.759h21.744l-12.177-34h-9.567
		V40.759L39.567,40.759z M61.808,42.759h-22.24v20h11.7l4.967,14H73.98L61.808,42.759L61.808,42.759z M37.567,42.759H15.172
		L3,76.759h17.762l4.95-14h11.856L37.567,42.759L37.567,42.759z M98.567,40.759v-34h-20v34H98.567L98.567,40.759z M100.567,42.759
		v34h6.774c11.763,0,21.294-9.143,21.294-20.904c0-5.121-1.808-10.096-4.823-13.096L100.567,42.759L100.567,42.759z M100.567,40.759
		h21.972c-2.067-2-4.57-3.646-7.365-4.751c4.862-2.737,8.137-7.625,8.137-13.598c0-8.817-7.15-15.651-15.97-15.651h-6.774V40.759
		L100.567,40.759z M98.567,42.759h-20v34h20V42.759z M154.567,40.759v-34h-20v34H154.567L154.567,40.759z M156.567,42.759v34h6.142
		c11.758,0,21.295-9.143,21.295-20.904c0-5.121-1.808-10.096-4.824-13.096C179.18,42.759,156.567,42.759,156.567,42.759z
		 M156.567,40.759h21.34c-2.068-2-4.57-3.646-7.365-4.751c4.857-2.737,8.137-7.625,8.137-13.598c0-8.817-7.15-15.651-15.97-15.651
		h-6.142L156.567,40.759L156.567,40.759z M154.567,42.759h-20v34h20V42.759z"/>
	<g>
		<polyline fill="#909AA5" points="396,15.944 396,26.285 406.237,26.285 406.237,76.688 416.354,76.688 416.354,15.944 396,15.944 
					"/>
		<polyline fill="#909AA5" points="406.197,0 406.197,10.343 420.817,10.343 420.817,76.962 430.937,76.962 430.937,0 406.197,0 		
			"/>
		<path fill="#909AA5" d="M567.399,50.708L477.66,50.69c-0.115,0.005-0.223,0.018-0.338,0.018c-6.399,0-11.589-5.189-11.589-11.591
			s5.19-11.593,11.589-11.593c6.407,0,11.593,5.191,11.593,11.593c0,0.509-0.043,1.005-0.108,1.496h10.383
			c0.034-0.496,0.074-0.992,0.074-1.496c0-12.12-9.82-21.942-21.942-21.942c-12.115,0-21.94,9.822-21.94,21.942
			c0,12.118,9.825,21.942,21.94,21.942c0.255,0,0.504-0.016,0.755-0.028H567.4V50.708"/>
		<path fill="#909AA5" d="M478.573,66.632v-0.017c-0.236,0.012-0.468,0.012-0.704,0.017h-0.268v0.007
			c-0.093,0.003-0.185,0.005-0.28,0.005c-15.203,0-27.529-12.325-27.529-27.527c0-15.205,12.326-27.533,27.529-27.533
			c15.204,0,27.535,12.328,27.535,27.533c0,0.483-0.016,0.962-0.041,1.443h10.141c0.021-0.481,0.039-0.96,0.039-1.443
			c0-20.807-16.867-37.674-37.675-37.674c-20.804,0-37.67,16.867-37.67,37.674c0,20.803,16.866,37.67,37.67,37.67
			c0.096,0,0.188-0.004,0.28-0.007v0.023h89.798V66.632H478.573"/>
		<g>
			<g>
				<path fill="#909AA5" d="M445.718,25.481"/>
			</g>
		</g>
	</g>
	<g>
		<path fill="#909AA5" d="M799.492,29.04l2.279,5.471c0.439-0.154,0.885-0.282,1.341-0.389l0.03-3.96
			c1.02-0.196,2.069-0.301,3.141-0.301c1.017,0,2.008,0.094,2.972,0.271l0.032,3.968c0.451,0.107,0.894,0.231,1.326,0.381
			l2.29-5.502c-2.065-0.754-4.292-1.185-6.619-1.185C803.894,27.795,801.614,28.247,799.492,29.04"/>
		<path fill="#909AA5" d="M792.543,33.486c-1.688,1.689-2.977,3.627-3.916,5.681l5.429,2.241c0.205-0.427,0.435-0.84,0.684-1.244
			l-2.743-2.785c0.586-0.857,1.252-1.672,2.012-2.431c0.717-0.719,1.485-1.355,2.291-1.914l2.799,2.758
			c0.393-0.245,0.803-0.476,1.221-0.68l-2.255-5.469C796.071,30.57,794.194,31.838,792.543,33.486"/>
		<path fill="#909AA5" d="M786.863,47.1c0,2.393,0.458,4.675,1.247,6.79l5.348-2.222c-0.157-0.456-0.292-0.923-0.398-1.399
			l-3.829-0.026c-0.194-1.018-0.299-2.071-0.299-3.143c0-1.013,0.098-2.002,0.27-2.973l3.897-0.026
			c0.112-0.458,0.245-0.908,0.398-1.352l-5.448-2.269C787.298,42.549,786.863,44.772,786.863,47.1"/>
		<path fill="#909AA5" d="M798.12,64.753l2.195-5.329c-0.439-0.215-0.862-0.455-1.274-0.71l-2.714,2.669
			c-0.855-0.584-1.672-1.256-2.431-2.013c-0.717-0.715-1.352-1.482-1.907-2.288l2.715-2.758c-0.247-0.402-0.471-0.818-0.675-1.249
			l-5.438,2.241c0.932,1.998,2.195,3.874,3.844,5.518C794.126,62.525,796.063,63.814,798.12,64.753"/>
		<path fill="#909AA5" d="M818.438,41.449l5.394-2.223c-0.938-2.055-2.226-3.993-3.919-5.685c-1.647-1.647-3.524-2.914-5.52-3.841
			l-2.232,5.415c0.427,0.212,0.838,0.444,1.24,0.692l2.756-2.716c0.808,0.561,1.576,1.191,2.293,1.91
			c0.759,0.763,1.427,1.576,2.01,2.434l-2.711,2.748C818.002,40.592,818.233,41.012,818.438,41.449"/>
		<path fill="#909AA5" d="M825.595,47.158c0-2.33-0.434-4.553-1.188-6.618l-5.415,2.254c0.159,0.444,0.289,0.901,0.398,1.366
			l3.867,0.03c0.173,0.963,0.268,1.955,0.268,2.968c0,1.076-0.105,2.122-0.301,3.142l-3.82,0.031
			c-0.108,0.471-0.245,0.936-0.4,1.391l5.343,2.228C825.14,51.833,825.595,49.551,825.595,47.158"/>
		<path fill="#909AA5" d="M820.024,60.89c1.646-1.648,2.911-3.523,3.841-5.518l-5.441-2.243c-0.205,0.425-0.435,0.838-0.679,1.237
			l2.73,2.772c-0.563,0.807-1.194,1.576-1.912,2.293c-0.763,0.755-1.576,1.427-2.433,2.009l-2.739-2.7
			c-0.406,0.251-0.827,0.49-1.261,0.701l2.211,5.37C816.397,63.874,818.33,62.583,820.024,60.89"/>
		<path fill="#909AA5" d="M804.949,38.493c0.434-0.081,0.882-0.121,1.334-0.121c0.402,0,0.791,0.037,1.176,0.096l0.019,1.876
			c0.31,0.054,0.605,0.147,0.899,0.242l1.109-2.667c-1.007-0.35-2.071-0.579-3.203-0.579c-1.187,0-2.312,0.245-3.361,0.626
			l1.101,2.651c0.294-0.1,0.588-0.203,0.901-0.262L804.949,38.493z"/>
		<path fill="#909AA5" d="M799.17,41.989c0.252-0.358,0.537-0.707,0.859-1.025c0.283-0.285,0.583-0.535,0.894-0.762l1.333,1.294
			c0.253-0.177,0.528-0.323,0.81-0.469l-1.093-2.651c-0.962,0.467-1.877,1.06-2.673,1.856c-0.841,0.841-1.462,1.807-1.933,2.825
			l2.653,1.095c0.138-0.285,0.28-0.563,0.448-0.824L799.17,41.989z"/>
		<path fill="#909AA5" d="M797.591,48.519c-0.075-0.43-0.117-0.875-0.117-1.331c0-0.398,0.033-0.785,0.094-1.168l1.861-0.028
			c0.053-0.309,0.14-0.61,0.231-0.902l-2.643-1.102c-0.348,1.006-0.579,2.071-0.579,3.201c0,1.188,0.245,2.313,0.631,3.367
			l2.661-1.109c-0.105-0.297-0.213-0.588-0.276-0.899L797.591,48.519z"/>
		<path fill="#909AA5" d="M801.045,54.222c-0.358-0.255-0.703-0.539-1.025-0.859c-0.283-0.281-0.532-0.582-0.761-0.896l1.312-1.345
			c-0.179-0.254-0.32-0.534-0.46-0.803l-2.676,1.1c0.467,0.96,1.057,1.877,1.857,2.674c0.841,0.839,1.8,1.462,2.823,1.933
			l1.099-2.664c-0.283-0.14-0.567-0.274-0.829-0.448L801.045,54.222z"/>
		<path fill="#909AA5" d="M811.646,40.202c0.313,0.227,0.616,0.477,0.901,0.762c0.32,0.318,0.602,0.667,0.855,1.025l-1.348,1.385
			c0.164,0.255,0.302,0.527,0.434,0.805l2.722-1.123c-0.474-1.018-1.093-1.983-1.933-2.825c-0.799-0.795-1.714-1.389-2.678-1.856
			l-1.105,2.685c0.271,0.147,0.537,0.292,0.785,0.471L811.646,40.202z"/>
		<path fill="#909AA5" d="M815.003,46.019c0.061,0.383,0.098,0.77,0.098,1.168c0,0.457-0.046,0.901-0.119,1.331l-1.936,0.032
			c-0.062,0.299-0.173,0.579-0.273,0.866l2.729,1.139c0.387-1.058,0.629-2.18,0.629-3.367c0-1.128-0.227-2.195-0.575-3.201
			l-2.711,1.127c0.087,0.289,0.17,0.574,0.222,0.878L815.003,46.019z"/>
		<path fill="#909AA5" d="M813.313,52.468c-0.229,0.313-0.478,0.614-0.761,0.896c-0.322,0.32-0.668,0.604-1.025,0.859l-1.377-1.34
			c-0.253,0.175-0.531,0.308-0.806,0.45l1.112,2.695c1.02-0.471,1.987-1.093,2.827-1.933c0.794-0.799,1.387-1.714,1.852-2.678
			l-2.735-1.125c-0.135,0.27-0.268,0.539-0.438,0.787L813.313,52.468z"/>
		<polygon fill="#909AA5" points="781.318,64.024 781.318,64.024 785.386,59.924 		"/>
		<path fill="#909AA5" d="M781.311,30.374c2.155-3.171,4.901-5.903,8.079-8.042l4.136,4.098c0.778-0.474,1.581-0.91,2.414-1.296
			l-3.01-7.302c-1.775,0.815-3.488,1.784-5.128,2.921c-1.515,1.053-2.968,2.244-4.32,3.596c-1.398,1.399-2.628,2.9-3.708,4.474
			c-1.13,1.649-2.097,3.375-2.898,5.156l7.238,2.984c0.392-0.836,0.825-1.648,1.306-2.431L781.311,30.374z"/>
		<path fill="#909AA5" d="M776.701,52.905c-0.358-1.854-0.56-3.759-0.56-5.71c0-1.945,0.201-3.845,0.554-5.685l5.836-0.033
			c0.221-0.901,0.49-1.782,0.805-2.639l-7.264-3.026c-0.684,1.831-1.208,3.743-1.562,5.708c-0.324,1.811-0.507,3.674-0.51,5.584
			c0.003,1.979,0.194,3.911,0.544,5.786c0.366,1.967,0.903,3.867,1.597,5.691l7.167-2.979c-0.313-0.869-0.586-1.756-0.803-2.67
			L776.701,52.905z"/>
		<path fill="#909AA5" d="M789.402,72.064c-3.18-2.136-5.926-4.871-8.085-8.041l4.068-4.1c-0.479-0.786-0.917-1.594-1.305-2.437
			l-7.26,2.998c0.806,1.775,1.786,3.491,2.921,5.128c1.053,1.518,2.244,2.965,3.594,4.317c1.399,1.401,2.9,2.63,4.474,3.71
			c1.647,1.133,3.374,2.099,5.16,2.898l2.952-7.166c-0.846-0.396-1.669-0.838-2.456-1.328L789.402,72.064z"/>
		<path fill="#909AA5" d="M822.998,22.472c3.163,2.168,5.886,4.92,8.016,8.107l-3.939,3.979c0.48,0.789,0.915,1.597,1.31,2.44
			l7.213-2.97c-0.801-1.782-1.763-3.512-2.893-5.158c-1.083-1.576-2.313-3.079-3.711-4.478c-1.347-1.348-2.795-2.538-4.308-3.587
			c-1.642-1.141-3.362-2.118-5.139-2.932l-3,7.266c0.838,0.39,1.649,0.829,2.433,1.308L822.998,22.472z"/>
		<path fill="#909AA5" d="M800.497,17.783c1.813-0.346,3.682-0.542,5.597-0.542c1.983,0,3.921,0.201,5.798,0.57l0.031,5.716
			c0.911,0.217,1.794,0.485,2.66,0.801l2.995-7.188c-1.83-0.696-3.736-1.233-5.698-1.595c-1.878-0.354-3.809-0.542-5.787-0.545
			c-1.906,0.003-3.769,0.186-5.585,0.509c-1.964,0.357-3.876,0.88-5.707,1.569l3.031,7.271c0.856-0.312,1.735-0.583,2.631-0.797
			L800.497,17.783z"/>
		<path fill="#909AA5" d="M837.966,41.565c-0.357-1.968-0.876-3.876-1.562-5.709l-7.251,3.019c0.317,0.862,0.588,1.738,0.804,2.643
			l5.543,0.035c0.348,1.828,0.547,3.708,0.547,5.643c0,1.969-0.207,3.89-0.575,5.749l-5.51,0.031
			c-0.217,0.911-0.49,1.798-0.81,2.666l7.182,2.989c0.696-1.826,1.236-3.732,1.602-5.7c0.35-1.873,0.541-3.804,0.541-5.782
			C838.477,45.239,838.293,43.375,837.966,41.565"/>
		<path fill="#909AA5" d="M830.966,63.888c-2.139,3.183-4.878,5.915-8.047,8.073l-3.935-3.898c-0.787,0.483-1.602,0.925-2.447,1.319
			l2.972,7.201c1.784-0.799,3.509-1.765,5.156-2.895c1.574-1.079,3.079-2.307,4.476-3.71c1.348-1.347,2.536-2.795,3.587-4.308
			c1.141-1.642,2.118-3.36,2.93-5.141l-7.278-3.001c-0.39,0.836-0.827,1.646-1.305,2.428L830.966,63.888z"/>
		<polygon fill="#909AA5" points="869.393,42.545 871.394,34.003 882.597,34.063 882.597,38.114 880.146,38.533 881.29,53.663 
			883.744,54.079 883.744,57.71 873.043,57.71 873.043,54.079 874.897,53.663 874.402,46.733 874.568,37.691 874.467,37.691 
			872.655,46.364 870.278,57.71 864.23,57.71 861.361,47.16 859.624,37.682 859.567,37.682 859.451,46.733 859,53.663 
			860.854,54.079 860.854,57.71 852.396,57.71 852.396,54.079 854.848,53.663 855.992,38.533 853.44,38.098 853.437,34.063 
			864.567,34.058 866.308,42.481 867.721,51.259 867.779,51.259 		"/>
		<polygon fill="#909AA5" points="934.377,46.586 936.295,40.426 945.469,40.437 945.469,44.137 943.755,44.729 944.411,53.428 
			946.302,54.074 946.302,57.687 937.212,57.687 937.212,54.074 938.473,53.428 938.206,49.673 938.338,44.137 938.263,44.137 
			936.736,49.848 934.529,57.687 929.186,57.687 926.872,49.988 925.662,44.088 925.616,44.088 925.653,49.673 925.381,53.761 
			926.674,54.074 926.674,57.687 920.182,57.687 920.182,54.074 922.038,53.761 922.727,44.722 920.946,44.123 920.939,40.44 
			930.083,40.426 931.633,46.56 932.801,52.44 932.843,52.44 		"/>
		<path fill="#909AA5" d="M992.344,52.3c0.518,0.566,1.651,1.117,2.734,1.117c2.191,0,2.938-1.749,2.938-4.771
			c0-3.283-0.68-5.02-2.811-5.02c-2.387,0-2.861,2.83-2.861,4.889V52.3z M986.553,44.563l-2.171-0.425v-3.634h7.44l-0.591,3.297
			h0.411c1.155-3.192,3.82-3.795,5.658-3.795c5.312,0,6.72,4.022,6.72,8.553c0,5.256-2.109,9.471-6.947,9.471
			c-1.882,0-3.544-0.736-4.645-1.716h-0.063v2.235l2.122,0.421v3.621h-10.104V58.97l2.171-0.421L986.553,44.563L986.553,44.563z"/>
		<path fill="#909AA5" d="M1068.854,52.3c0.521,0.566,1.599,1.117,2.732,1.117c2.191,0,2.945-1.749,2.945-4.771
			c0-3.283-0.684-5.02-2.811-5.02c-2.393,0-2.867,2.83-2.867,4.889L1068.854,52.3L1068.854,52.3z M1063.059,44.563l-2.165-0.425
			v-3.634h7.445l-0.6,3.297h0.411c1.152-3.192,3.821-3.795,5.662-3.795c5.307,0,6.72,4.022,6.72,8.553
			c0,5.256-2.115,9.471-6.944,9.471c-1.882,0-3.55-0.736-4.645-1.716h-0.066v2.235l2.123,0.42v3.621h-10.106v-3.621l2.165-0.421
			V44.563L1063.059,44.563z"/>
		<path fill="#909AA5" d="M1011.296,48.79c0,3.902,0.909,5.401,2.685,5.401c1.749,0,2.657-1.499,2.657-5.371
			c0-3.871-0.908-5.41-2.688-5.41C1012.206,43.41,1011.296,44.949,1011.296,48.79 M1013.95,40.111c5.438,0,8.686,3.74,8.686,9.029
			c0,5.189-3.342,9-8.686,9c-5.315,0-8.658-3.811-8.658-9C1005.292,43.851,1008.545,40.111,1013.95,40.111"/>
		<path fill="#909AA5" d="M1087.925,48.814c0,3.907,0.901,5.402,2.689,5.402c1.75,0,2.655-1.495,2.655-5.371
			c0-3.872-0.904-5.41-2.688-5.41C1088.826,43.436,1087.925,44.973,1087.925,48.814 M1090.581,40.111
			c5.438,0,8.684,3.74,8.684,9.029c0,5.189-3.341,9-8.684,9c-5.312,0-8.656-3.811-8.656-9
			C1081.924,43.851,1085.174,40.111,1090.581,40.111"/>
		<polygon fill="#909AA5" points="964.819,40.447 964.819,47.294 969.206,47.294 969.624,44.078 971.278,44.078 971.278,53.435 
			969.431,54.074 969.431,57.71 978.929,57.71 978.929,54.074 977.088,53.435 977.088,44.078 978.68,44.078 979.096,47.294 
			983.485,47.294 983.485,40.447 		"/>
		<polygon fill="#909AA5" points="1041.25,40.447 1041.25,47.294 1045.642,47.294 1046.059,44.078 1047.71,44.078 1047.71,53.435 
			1045.866,54.074 1045.866,57.71 1055.36,57.71 1055.36,54.074 1053.521,53.435 1053.521,44.078 1055.113,44.078 1055.53,47.294 
			1059.921,47.294 1059.921,40.447 		"/>
		<path fill="#909AA5" d="M1030.142,48.87c0-2.763,0.476-5.042,2.685-5.042c2.004,0,2.412,1.847,2.412,3.316h4.812v-6.671h-4.439
			v1.46h-0.063c-1.231-1.494-2.886-1.726-4.122-1.726c-4.996,0-7.28,3.671-7.285,8.75h-0.016c0,5.502,2.199,9.162,8.42,9.162
			c3.107,0,5.679-1.341,7.783-2.609l-1.62-3.544c-1.935,0.896-3.73,1.235-5.156,1.235
			C1030.936,53.201,1030.142,51.501,1030.142,48.87"/>
		<path fill="#909AA5" d="M890.074,48.79c0,3.902,0.906,5.401,2.688,5.401c1.746,0,2.657-1.499,2.657-5.371
			c0-3.871-0.911-5.41-2.691-5.41C890.979,43.41,890.074,44.949,890.074,48.79 M892.727,40.111c5.439,0,8.688,3.74,8.688,9.029
			c0,5.189-3.346,9-8.688,9c-5.312,0-8.653-3.811-8.653-9C884.074,43.851,887.324,40.111,892.727,40.111"/>
		<path fill="#909AA5" d="M908.685,48.87c0-2.763,0.476-5.042,2.687-5.042c2.003,0,2.409,1.847,2.409,3.316h4.808v-6.671h-4.432
			v1.46h-0.065c-1.233-1.494-2.886-1.726-4.126-1.726c-4.993,0-7.271,3.671-7.281,8.75h-0.014c0,5.502,2.197,9.162,8.418,9.162
			c3.105,0,5.686-1.341,7.781-2.609l-1.618-3.544c-1.933,0.896-3.73,1.235-5.158,1.235C909.481,53.201,908.685,51.501,908.685,48.87
			"/>
		<path fill="#909AA5" d="M1107.626,34.007c0.257,1.226,1.058,1.927,2.232,1.927c1.2,0,1.935-0.827,2.216-1.908l4.264,1.349
			c-1.371,2.669-3.454,4.035-6.508,4.035c-3.505,0-5.849-1.754-6.59-4.156L1107.626,34.007z M1107.508,49.552l4.542-9.053h7.184
			v3.656l-1.95,0.588v8.715l1.95,0.579v3.659h-8.997v-3.659l1.242-0.579v-4.665h-0.157l-4.705,8.902h-7.066v-3.598l1.954-0.588
			v-8.768l-1.954-0.588v-3.656h9.004v3.656l-1.244,0.588v4.81L1107.508,49.552L1107.508,49.552z"/>
		<path fill="#909AA5" d="M958.225,47.509c0-1.186-0.093-3.967-2.477-3.967c-2.617,0-2.715,3.255-2.715,3.967H958.225z
			 M964.025,55.121c-2.09,1.588-4.852,3.014-8.049,3.014c-6.251,0-8.752-3.753-8.752-9.093c0-5.28,3.251-8.931,8.628-8.931
			c5.805,0,8.18,3.836,8.18,9.335c0,0.467-0.026,0.757-0.058,1.065h-10.94c0,1.84,1.12,2.798,3.637,2.798
			c1.925,0,3.587-0.507,5.509-1.415L964.025,55.121z"/>
		<path fill="#909AA5" d="M801.219,68.554l0.817-3.724h8.259l0.785,3.724H801.219z M803.013,60.361h6.33l0.558,2.632h-7.463
			L803.013,60.361z M803.732,57.098h4.918l0.418,1.966h-5.767L803.732,57.098z M804.308,54.478h3.787l0.358,1.686h-4.518
			L804.308,54.478z M804.629,52.998l0.126-0.471h2.901l0.126,0.488l0.168,0.787h-3.496L804.629,52.998z M805.196,50.981h2.451
			c-0.058,0.295-0.087,0.621-0.07,0.988h-0.014h-0.019h-2.666h-0.02C804.939,51.597,805.06,51.277,805.196,50.981 M816.22,73.339
			v-0.763l-7.366-19.096c-0.996-2.66-0.294-4.526,1.707-5.047l-0.102-0.007c-0.478,0-2.16,0.511-2.702,2.214l-0.005-0.016
			l-0.007,0.063c-0.005,0.012-0.013,0.03-0.017,0.043h-2.409c1.163-2.174,3.579-2.288,3.627-2.305h-0.308
			c-0.075,0.028-3.39,0.023-4.404,3.313l-0.318,0.812l-7.892,20.026v0.763h0.908v0.7l-0.908,1.738v0.763h1.641h1.802l1.142-5.198
			h11.066l1.104,5.198h2.538h0.904v-0.763l-0.91-1.738v-0.7C815.311,73.339,816.22,73.339,816.22,73.339z"/>
	</g>
	<g>
		<g>
			<polygon fill="#909AA5" points="1621.982,41.042 1636.796,41.031 1636.796,37.208 1626.257,37.208 1626.257,30.526 
				1635.362,30.523 1635.362,26.792 1626.257,26.792 1626.257,21.54 1636.796,21.54 1636.796,17.704 1621.982,17.704 			"/>
			<polygon fill="#909AA5" points="1724.399,41.042 1739.234,41.042 1739.234,37.208 1728.69,37.208 1728.69,30.523 
				1737.785,30.523 1737.785,26.792 1728.69,26.792 1728.69,21.54 1739.234,21.54 1739.234,17.704 1724.399,17.704 			"/>
			<polygon fill="#909AA5" points="1673.861,26.792 1666.307,26.792 1666.307,17.704 1662.022,17.704 1662.022,41.042 
				1666.307,41.042 1666.307,30.526 1673.861,30.526 1673.861,41.042 1678.147,41.042 1678.147,17.704 1673.861,17.704 			"/>
			<polygon fill="#909AA5" points="1601.845,21.54 1608.001,21.54 1607.996,41.042 1612.384,41.042 1612.384,21.54 1618.52,21.54 
				1618.52,17.704 1601.845,17.704 			"/>
			<polygon fill="#909AA5" points="1657.7,17.704 1653.014,17.704 1648.997,25.154 1644.996,17.704 1640.304,17.704 
				1646.674,28.817 1639.627,41.042 1644.314,41.042 1648.992,32.525 1653.689,41.042 1658.372,41.042 1651.355,28.817 			"/>
			<path fill="#909AA5" d="M1696.113,35.305c0,1.031-0.691,1.904-1.632,2.071c-0.778,0.155-1.733,0.221-2.842,0.221
				c-1.108,0-2.069-0.066-2.831-0.221c-0.946-0.167-1.642-1.04-1.642-2.071V23.312c0-1.029,0.696-1.903,1.642-2.076
				c0.762-0.15,1.723-0.219,2.831-0.219s2.064,0.068,2.842,0.219c0.941,0.173,1.632,1.047,1.632,2.076V35.305z M1691.64,17.254
				c-4.845,0-8.764,1.052-8.764,5.709v12.679c0,4.662,3.919,5.725,8.764,5.725c4.84,0,8.759-1.063,8.759-5.725V22.964
				C1700.399,18.307,1696.479,17.254,1691.64,17.254"/>
			<path fill="#909AA5" d="M1752.706,28.337h-4.524v-6.761h4.524c2.527,0,3.529,1.105,3.529,3.381
				C1756.234,27.234,1755.232,28.337,1752.706,28.337 M1753.102,17.712l-9.202-0.008v23.337h4.28V32.21h4.921
				c5.16,0,7.61-3.241,7.61-7.254C1760.713,20.955,1758.263,17.712,1753.102,17.712"/>
			<path fill="#909AA5" d="M1772.67,37.163h-4.128v-6.67h4.128c2.532,0,3.523,1.019,3.523,3.292
				C1776.193,36.064,1775.202,37.163,1772.67,37.163 M1768.542,21.458h3.441c2.517,0,3.523,0.966,3.523,2.969
				c0,1.997-1.007,2.89-3.523,2.89h-3.441V21.458z M1777.825,28.565c1.439-1.125,2.15-2.76,2.15-4.529c0-3.711-2.44-6.324-7.6-6.324
				h-8.124v23.33h8.815c5.165,0,7.61-3.253,7.61-7.257C1780.677,31.586,1779.747,29.694,1777.825,28.565"/>
			<path fill="#909AA5" d="M1711.441,17.333c-1.134,0.104-2.308,0.308-3.259,0.666c-2.059,0.77-3.381,2.26-3.381,4.965v12.702
				c0,2.702,1.322,4.196,3.381,4.964c0.951,0.36,2.125,0.564,3.259,0.673c2.964,0.28,8.668-0.48,8.668-0.48v-3.762
				c0,0-6.879,0.711-9.38,0.346c-0.951-0.147-1.631-1.06-1.631-2.08V23.312c0-1.032,0.681-1.937,1.631-2.076
				c2.501-0.372,9.38,0.34,9.38,0.34v-3.757C1720.109,17.818,1714.405,17.051,1711.441,17.333z"/>
		</g>
	</g>
	<polygon fill="#909AA5" points="1543,80 1543,74 1549,74 1549,68 1543,68 1543,62 1537,62 1537,68 1531,68 1531,74 1537,74 
		1537,80 	"/>
	<polygon fill="#909AA5" points="1549,88 1543,88 1543,82 1537,82 1537,88 1531,88 1531,95 1549,95 	"/>
	<polygon fill="#909AA5" points="1522,38 1522,32 1528,32 1528,26 1522,26 1522,20 1516,20 1516,26 1510,26 1510,32 1516,32 
		1516,38 	"/>
	<polygon fill="#909AA5" points="1537,20 1537,26 1531,26 1531,32 1537,32 1537,38 1543,38 1543,32 1549,32 1549,26 1543,26 
		1543,20 	"/>
	<polygon fill="#909AA5" points="1564,38 1564,32 1570,32 1570,26 1564,26 1564,20 1558,20 1558,26 1552,26 1552,32 1558,32 
		1558,38 	"/>
	<polygon fill="#909AA5" points="1549,47 1543,47 1543,41 1537,41 1537,47 1531,47 1531,53 1537,53 1537,59 1543,59 1543,53 
		1549,53 	"/>
	<polygon fill="#909AA5" points="1572,12 1578,12 1578,18 1585,18 1585,5 1572,5 	"/>
	<polygon fill="#909AA5" points="1585,38 1585,20 1578,20 1578,26 1572,26 1572,32 1578,32 1578,38 	"/>
	<polygon fill="#909AA5" points="1531,5 1531,12 1537,12 1537,18 1543,18 1543,12 1549,12 1549,5 	"/>
	<polygon fill="#909AA5" points="1522,18 1522,12 1528,12 1528,5 1510,5 1510,12 1516,12 1516,18 	"/>
	<polygon fill="#909AA5" points="1495,20 1495,38 1502,38 1502,32 1508,32 1508,26 1502,26 1502,20 	"/>
	<polygon fill="#909AA5" points="1578,41 1578,47 1564,47 1564,41 1558,41 1558,47 1552,47 1552,53 1558,53 1558,68 1552,68 
		1552,74 1558,74 1558,88 1552,88 1552,95 1585,95 1585,41 	"/>
	<polygon fill="#909AA5" points="1528,88 1522,88 1522,74 1528,74 1528,68 1522,68 1522,53 1528,53 1528,47 1522,47 1522,41 
		1516,41 1516,47 1502,47 1502,41 1495,41 1495,95 1528,95 	"/>
	<polygon fill="#909AA5" points="1502,18 1502,12 1508,12 1508,5 1495,5 1495,18 	"/>
	<polygon fill="#909AA5" points="1570,5 1552,5 1552,12 1558,12 1558,18 1564,18 1564,12 1570,12 	"/>
	<path id="path241_1_" fill="#EC1646" d="M212.668,40.759l12.177-34h9.722v34H212.668z M236.567,40.759h21.744l-12.177-34h-9.567
		V40.759L236.567,40.759z M258.808,42.759h-22.24v20h11.7l4.967,14h17.745L258.808,42.759L258.808,42.759z M234.567,42.759h-22.395
		l-12.172,34h17.762l4.95-14h11.856L234.567,42.759L234.567,42.759z M295.567,40.759v-34h-20v34H295.567L295.567,40.759z
		 M297.567,42.759v34h6.774c11.763,0,21.294-9.143,21.294-20.904c0-5.121-1.808-10.096-4.823-13.096L297.567,42.759L297.567,42.759z
		 M297.567,40.759h21.972c-2.067-2-4.57-3.646-7.365-4.751c4.862-2.737,8.137-7.625,8.137-13.598c0-8.817-7.15-15.651-15.97-15.651
		h-6.774V40.759L297.567,40.759z M295.567,42.759h-20v34h20V42.759z M351.567,40.759v-34h-20v34H351.567L351.567,40.759z
		 M353.567,42.759v34h6.142c11.758,0,21.295-9.143,21.295-20.904c0-5.121-1.808-10.096-4.824-13.096
		C376.18,42.759,353.567,42.759,353.567,42.759z M353.567,40.759h21.34c-2.068-2-4.57-3.646-7.365-4.751
		c4.857-2.737,8.137-7.625,8.137-13.598c0-8.817-7.15-15.651-15.97-15.651h-6.142V40.759L353.567,40.759z M351.567,42.759h-20v34h20
		V42.759z"/>
	<g>
		<polyline fill="#EC1646" points="581,15.944 581,26.285 591.237,26.285 591.237,76.688 601.354,76.688 601.354,15.944 581,15.944 
					"/>
		<polyline fill="#EC1646" points="591.197,0 591.197,10.343 605.817,10.343 605.817,76.962 615.937,76.962 615.937,0 591.197,0 		
			"/>
		<path fill="#EC1646" d="M752.399,50.708L662.66,50.69c-0.115,0.005-0.223,0.018-0.338,0.018c-6.399,0-11.589-5.189-11.589-11.591
			s5.19-11.593,11.589-11.593c6.407,0,11.593,5.191,11.593,11.593c0,0.509-0.043,1.005-0.108,1.496h10.383
			c0.034-0.496,0.074-0.992,0.074-1.496c0-12.12-9.82-21.942-21.942-21.942c-12.115,0-21.94,9.822-21.94,21.942
			c0,12.118,9.825,21.942,21.94,21.942c0.255,0,0.504-0.016,0.755-0.028H752.4V50.708"/>
		<path fill="#EC1646" d="M663.573,66.632v-0.017c-0.236,0.012-0.468,0.012-0.704,0.017h-0.268v0.007
			c-0.093,0.003-0.185,0.005-0.28,0.005c-15.203,0-27.529-12.325-27.529-27.527c0-15.205,12.326-27.533,27.529-27.533
			c15.204,0,27.535,12.328,27.535,27.533c0,0.483-0.016,0.962-0.041,1.443h10.141c0.021-0.481,0.039-0.96,0.039-1.443
			c0-20.807-16.867-37.674-37.675-37.674c-20.804,0-37.67,16.867-37.67,37.674c0,20.803,16.866,37.67,37.67,37.67
			c0.096,0,0.188-0.004,0.28-0.007v0.023h89.798V66.632H663.573"/>
		<g>
			<g>
				<path fill="#EC1646" d="M630.718,25.481"/>
			</g>
		</g>
	</g>
	<g>
		<path fill="#EC1646" d="M1162.492,29.04l2.279,5.471c0.439-0.154,0.885-0.282,1.341-0.389l0.03-3.96
			c1.02-0.196,2.069-0.301,3.141-0.301c1.017,0,2.008,0.094,2.972,0.271l0.032,3.968c0.451,0.107,0.894,0.231,1.326,0.381
			l2.29-5.502c-2.065-0.754-4.292-1.185-6.619-1.185C1166.894,27.795,1164.614,28.247,1162.492,29.04"/>
		<path fill="#EC1646" d="M1155.543,33.486c-1.688,1.689-2.977,3.627-3.916,5.681l5.429,2.241c0.205-0.427,0.435-0.84,0.684-1.244
			l-2.743-2.785c0.586-0.857,1.252-1.672,2.012-2.431c0.717-0.719,1.485-1.355,2.291-1.914l2.799,2.758
			c0.393-0.245,0.803-0.476,1.221-0.68l-2.255-5.469C1159.071,30.57,1157.194,31.838,1155.543,33.486"/>
		<path fill="#EC1646" d="M1149.863,47.1c0,2.393,0.458,4.675,1.247,6.79l5.348-2.222c-0.157-0.456-0.292-0.923-0.398-1.399
			l-3.829-0.026c-0.194-1.018-0.299-2.071-0.299-3.143c0-1.013,0.098-2.002,0.27-2.973l3.897-0.026
			c0.112-0.458,0.245-0.908,0.398-1.352l-5.448-2.269C1150.298,42.549,1149.863,44.772,1149.863,47.1"/>
		<path fill="#EC1646" d="M1161.12,64.753l2.195-5.329c-0.439-0.215-0.862-0.455-1.274-0.71l-2.714,2.669
			c-0.855-0.584-1.672-1.256-2.431-2.013c-0.717-0.715-1.352-1.482-1.907-2.288l2.715-2.758c-0.247-0.402-0.471-0.818-0.675-1.249
			l-5.438,2.241c0.932,1.998,2.195,3.874,3.844,5.518C1157.126,62.525,1159.063,63.814,1161.12,64.753"/>
		<path fill="#EC1646" d="M1181.438,41.449l5.394-2.223c-0.938-2.055-2.226-3.993-3.919-5.685c-1.647-1.647-3.524-2.914-5.52-3.841
			l-2.232,5.415c0.427,0.212,0.838,0.444,1.24,0.692l2.756-2.716c0.808,0.561,1.576,1.191,2.293,1.91
			c0.759,0.763,1.427,1.576,2.01,2.434l-2.711,2.748C1181.002,40.592,1181.233,41.012,1181.438,41.449"/>
		<path fill="#EC1646" d="M1188.595,47.158c0-2.33-0.434-4.553-1.188-6.618l-5.415,2.254c0.159,0.444,0.289,0.901,0.398,1.366
			l3.867,0.03c0.173,0.963,0.268,1.955,0.268,2.968c0,1.076-0.105,2.122-0.301,3.142l-3.82,0.031
			c-0.108,0.471-0.245,0.936-0.4,1.391l5.343,2.228C1188.14,51.833,1188.595,49.551,1188.595,47.158"/>
		<path fill="#EC1646" d="M1183.024,60.89c1.646-1.648,2.911-3.523,3.841-5.518l-5.441-2.243c-0.205,0.425-0.435,0.838-0.679,1.237
			l2.73,2.772c-0.563,0.807-1.194,1.576-1.912,2.293c-0.763,0.755-1.576,1.427-2.433,2.009l-2.739-2.7
			c-0.406,0.251-0.827,0.49-1.261,0.701l2.211,5.37C1179.397,63.874,1181.33,62.583,1183.024,60.89"/>
		<path fill="#EC1646" d="M1167.949,38.493c0.434-0.081,0.882-0.121,1.334-0.121c0.402,0,0.791,0.037,1.176,0.096l0.019,1.876
			c0.31,0.054,0.605,0.147,0.899,0.242l1.109-2.667c-1.007-0.35-2.071-0.579-3.203-0.579c-1.187,0-2.312,0.245-3.361,0.626
			l1.101,2.651c0.294-0.1,0.588-0.203,0.901-0.262L1167.949,38.493z"/>
		<path fill="#EC1646" d="M1162.17,41.989c0.252-0.358,0.537-0.707,0.859-1.025c0.283-0.285,0.583-0.535,0.894-0.762l1.333,1.294
			c0.253-0.177,0.528-0.323,0.81-0.469l-1.093-2.651c-0.962,0.467-1.877,1.06-2.673,1.856c-0.841,0.841-1.462,1.807-1.933,2.825
			l2.653,1.095c0.138-0.285,0.28-0.563,0.448-0.824L1162.17,41.989z"/>
		<path fill="#EC1646" d="M1160.591,48.519c-0.075-0.43-0.117-0.875-0.117-1.331c0-0.398,0.033-0.785,0.094-1.168l1.861-0.028
			c0.053-0.309,0.14-0.61,0.231-0.902l-2.643-1.102c-0.348,1.006-0.579,2.071-0.579,3.201c0,1.188,0.245,2.313,0.631,3.367
			l2.661-1.109c-0.105-0.297-0.213-0.588-0.276-0.899L1160.591,48.519z"/>
		<path fill="#EC1646" d="M1164.045,54.222c-0.358-0.255-0.703-0.539-1.025-0.859c-0.283-0.281-0.532-0.582-0.761-0.896l1.312-1.345
			c-0.179-0.254-0.32-0.534-0.46-0.803l-2.676,1.1c0.467,0.96,1.057,1.877,1.857,2.674c0.841,0.839,1.8,1.462,2.823,1.933
			l1.099-2.664c-0.283-0.14-0.567-0.274-0.829-0.448L1164.045,54.222z"/>
		<path fill="#EC1646" d="M1174.646,40.202c0.313,0.227,0.616,0.477,0.901,0.762c0.32,0.318,0.602,0.667,0.855,1.025l-1.348,1.385
			c0.164,0.255,0.302,0.527,0.434,0.805l2.722-1.123c-0.474-1.018-1.093-1.983-1.933-2.825c-0.799-0.795-1.714-1.389-2.678-1.856
			l-1.105,2.685c0.271,0.147,0.537,0.292,0.785,0.471L1174.646,40.202z"/>
		<path fill="#EC1646" d="M1178.003,46.019c0.061,0.383,0.098,0.77,0.098,1.168c0,0.457-0.046,0.901-0.119,1.331l-1.936,0.032
			c-0.062,0.299-0.173,0.579-0.273,0.866l2.729,1.139c0.387-1.058,0.629-2.18,0.629-3.367c0-1.128-0.227-2.195-0.575-3.201
			l-2.711,1.127c0.087,0.289,0.17,0.574,0.222,0.878L1178.003,46.019z"/>
		<path fill="#EC1646" d="M1176.313,52.468c-0.229,0.313-0.478,0.614-0.761,0.896c-0.322,0.32-0.668,0.604-1.025,0.859l-1.377-1.34
			c-0.253,0.175-0.531,0.308-0.806,0.45l1.112,2.695c1.02-0.471,1.987-1.093,2.827-1.933c0.794-0.799,1.387-1.714,1.852-2.678
			l-2.735-1.125c-0.135,0.27-0.268,0.539-0.438,0.787L1176.313,52.468z"/>
		<polygon fill="#EC1646" points="1144.318,64.024 1144.318,64.024 1148.386,59.924 		"/>
		<path fill="#EC1646" d="M1144.311,30.374c2.155-3.171,4.901-5.903,8.079-8.042l4.136,4.098c0.778-0.474,1.581-0.91,2.414-1.296
			l-3.01-7.302c-1.775,0.815-3.488,1.784-5.128,2.921c-1.515,1.053-2.968,2.244-4.32,3.596c-1.398,1.399-2.628,2.9-3.708,4.474
			c-1.13,1.649-2.097,3.375-2.898,5.156l7.238,2.984c0.392-0.836,0.825-1.648,1.306-2.431L1144.311,30.374z"/>
		<path fill="#EC1646" d="M1139.701,52.905c-0.358-1.854-0.56-3.759-0.56-5.71c0-1.945,0.201-3.845,0.554-5.685l5.836-0.033
			c0.221-0.901,0.49-1.782,0.805-2.639l-7.264-3.026c-0.684,1.831-1.208,3.743-1.562,5.708c-0.324,1.811-0.507,3.674-0.51,5.584
			c0.003,1.979,0.194,3.911,0.544,5.786c0.366,1.967,0.903,3.867,1.597,5.691l7.167-2.979c-0.313-0.869-0.586-1.756-0.803-2.67
			L1139.701,52.905z"/>
		<path fill="#EC1646" d="M1152.402,72.064c-3.18-2.136-5.926-4.871-8.085-8.041l4.068-4.1c-0.479-0.786-0.917-1.594-1.305-2.437
			l-7.26,2.998c0.806,1.775,1.786,3.491,2.921,5.128c1.053,1.518,2.244,2.965,3.594,4.317c1.399,1.401,2.9,2.63,4.474,3.71
			c1.647,1.133,3.374,2.099,5.16,2.898l2.952-7.166c-0.846-0.396-1.669-0.838-2.456-1.328L1152.402,72.064z"/>
		<path fill="#EC1646" d="M1185.998,22.472c3.163,2.168,5.886,4.92,8.016,8.107l-3.939,3.979c0.48,0.789,0.915,1.597,1.31,2.44
			l7.213-2.97c-0.801-1.782-1.763-3.512-2.893-5.158c-1.083-1.576-2.313-3.079-3.711-4.478c-1.347-1.348-2.795-2.538-4.308-3.587
			c-1.642-1.141-3.362-2.118-5.139-2.932l-3,7.266c0.838,0.39,1.649,0.829,2.433,1.308L1185.998,22.472z"/>
		<path fill="#EC1646" d="M1163.497,17.783c1.813-0.346,3.682-0.542,5.597-0.542c1.983,0,3.921,0.201,5.798,0.57l0.031,5.716
			c0.911,0.217,1.794,0.485,2.66,0.801l2.995-7.188c-1.83-0.696-3.736-1.233-5.698-1.595c-1.878-0.354-3.809-0.542-5.787-0.545
			c-1.906,0.003-3.769,0.186-5.585,0.509c-1.964,0.357-3.876,0.88-5.707,1.569l3.031,7.271c0.856-0.312,1.735-0.583,2.631-0.797
			L1163.497,17.783z"/>
		<path fill="#EC1646" d="M1200.966,41.565c-0.357-1.968-0.876-3.876-1.562-5.709l-7.251,3.019c0.317,0.862,0.588,1.738,0.804,2.643
			l5.543,0.035c0.348,1.828,0.547,3.708,0.547,5.643c0,1.969-0.207,3.89-0.575,5.749l-5.51,0.031
			c-0.217,0.911-0.49,1.798-0.81,2.666l7.182,2.989c0.696-1.826,1.236-3.732,1.602-5.7c0.35-1.873,0.541-3.804,0.541-5.782
			C1201.477,45.239,1201.293,43.375,1200.966,41.565"/>
		<path fill="#EC1646" d="M1193.966,63.888c-2.139,3.183-4.878,5.915-8.047,8.073l-3.935-3.898
			c-0.787,0.483-1.602,0.925-2.447,1.319l2.972,7.201c1.784-0.799,3.509-1.765,5.156-2.895c1.574-1.079,3.079-2.307,4.476-3.71
			c1.348-1.347,2.536-2.795,3.587-4.308c1.141-1.642,2.118-3.36,2.93-5.141l-7.278-3.001c-0.39,0.836-0.827,1.646-1.305,2.428
			L1193.966,63.888z"/>
		<polygon fill="#EC1646" points="1232.393,42.545 1234.394,34.003 1245.597,34.063 1245.597,38.114 1243.146,38.533 
			1244.29,53.663 1246.744,54.079 1246.744,57.71 1236.043,57.71 1236.043,54.079 1237.897,53.663 1237.402,46.733 1237.568,37.691 
			1237.467,37.691 1235.655,46.364 1233.278,57.71 1227.23,57.71 1224.361,47.16 1222.624,37.682 1222.567,37.682 1222.451,46.733 
			1222,53.663 1223.854,54.079 1223.854,57.71 1215.396,57.71 1215.396,54.079 1217.848,53.663 1218.992,38.533 1216.44,38.098 
			1216.437,34.063 1227.567,34.058 1229.308,42.481 1230.721,51.259 1230.779,51.259 		"/>
		<polygon fill="#EC1646" points="1297.377,46.586 1299.295,40.426 1308.469,40.437 1308.469,44.137 1306.755,44.729 
			1307.411,53.428 1309.302,54.074 1309.302,57.687 1300.212,57.687 1300.212,54.074 1301.473,53.428 1301.206,49.673 
			1301.338,44.137 1301.263,44.137 1299.736,49.848 1297.529,57.687 1292.186,57.687 1289.872,49.988 1288.662,44.088 
			1288.616,44.088 1288.653,49.673 1288.381,53.761 1289.674,54.074 1289.674,57.687 1283.182,57.687 1283.182,54.074 
			1285.038,53.761 1285.727,44.722 1283.946,44.123 1283.939,40.44 1293.083,40.426 1294.633,46.56 1295.801,52.44 1295.843,52.44 
					"/>
		<path fill="#EC1646" d="M1355.344,52.3c0.518,0.566,1.651,1.117,2.734,1.117c2.191,0,2.938-1.749,2.938-4.771
			c0-3.283-0.68-5.02-2.811-5.02c-2.387,0-2.861,2.83-2.861,4.889V52.3z M1349.553,44.563l-2.171-0.425v-3.634h7.44l-0.591,3.297
			h0.411c1.155-3.192,3.82-3.795,5.658-3.795c5.312,0,6.72,4.022,6.72,8.553c0,5.256-2.109,9.471-6.947,9.471
			c-1.882,0-3.544-0.736-4.645-1.716h-0.063v2.235l2.122,0.421v3.621h-10.104V58.97l2.171-0.421L1349.553,44.563L1349.553,44.563z"
			/>
		<path fill="#EC1646" d="M1431.854,52.3c0.521,0.566,1.599,1.117,2.732,1.117c2.191,0,2.945-1.749,2.945-4.771
			c0-3.283-0.684-5.02-2.811-5.02c-2.393,0-2.867,2.83-2.867,4.889L1431.854,52.3L1431.854,52.3z M1426.059,44.563l-2.165-0.425
			v-3.634h7.445l-0.6,3.297h0.411c1.152-3.192,3.821-3.795,5.662-3.795c5.307,0,6.72,4.022,6.72,8.553
			c0,5.256-2.115,9.471-6.944,9.471c-1.882,0-3.55-0.736-4.645-1.716h-0.066v2.235l2.123,0.42v3.621h-10.106v-3.621l2.165-0.421
			V44.563L1426.059,44.563z"/>
		<path fill="#EC1646" d="M1374.296,48.79c0,3.902,0.909,5.401,2.685,5.401c1.749,0,2.657-1.499,2.657-5.371
			c0-3.871-0.908-5.41-2.688-5.41C1375.206,43.41,1374.296,44.949,1374.296,48.79 M1376.95,40.111c5.438,0,8.686,3.74,8.686,9.029
			c0,5.189-3.342,9-8.686,9c-5.315,0-8.658-3.811-8.658-9C1368.292,43.851,1371.545,40.111,1376.95,40.111"/>
		<path fill="#EC1646" d="M1450.925,48.814c0,3.907,0.901,5.402,2.689,5.402c1.75,0,2.655-1.495,2.655-5.371
			c0-3.872-0.904-5.41-2.688-5.41C1451.826,43.436,1450.925,44.973,1450.925,48.814 M1453.581,40.111
			c5.438,0,8.684,3.74,8.684,9.029c0,5.189-3.341,9-8.684,9c-5.312,0-8.656-3.811-8.656-9
			C1444.924,43.851,1448.174,40.111,1453.581,40.111"/>
		<polygon fill="#EC1646" points="1327.819,40.447 1327.819,47.294 1332.206,47.294 1332.624,44.078 1334.278,44.078 
			1334.278,53.435 1332.431,54.074 1332.431,57.71 1341.929,57.71 1341.929,54.074 1340.088,53.435 1340.088,44.078 1341.68,44.078 
			1342.096,47.294 1346.485,47.294 1346.485,40.447 		"/>
		<polygon fill="#EC1646" points="1404.25,40.447 1404.25,47.294 1408.642,47.294 1409.059,44.078 1410.71,44.078 1410.71,53.435 
			1408.866,54.074 1408.866,57.71 1418.36,57.71 1418.36,54.074 1416.521,53.435 1416.521,44.078 1418.113,44.078 1418.53,47.294 
			1422.921,47.294 1422.921,40.447 		"/>
		<path fill="#EC1646" d="M1393.142,48.87c0-2.763,0.476-5.042,2.685-5.042c2.004,0,2.412,1.847,2.412,3.316h4.812v-6.671h-4.439
			v1.46h-0.063c-1.231-1.494-2.886-1.726-4.122-1.726c-4.996,0-7.28,3.671-7.285,8.75h-0.016c0,5.502,2.199,9.162,8.42,9.162
			c3.107,0,5.679-1.341,7.783-2.609l-1.62-3.544c-1.935,0.896-3.73,1.235-5.156,1.235
			C1393.936,53.201,1393.142,51.501,1393.142,48.87"/>
		<path fill="#EC1646" d="M1253.074,48.79c0,3.902,0.906,5.401,2.688,5.401c1.746,0,2.657-1.499,2.657-5.371
			c0-3.871-0.911-5.41-2.691-5.41C1253.979,43.41,1253.074,44.949,1253.074,48.79 M1255.727,40.111c5.439,0,8.688,3.74,8.688,9.029
			c0,5.189-3.346,9-8.688,9c-5.312,0-8.653-3.811-8.653-9C1247.074,43.851,1250.324,40.111,1255.727,40.111"/>
		<path fill="#EC1646" d="M1271.685,48.87c0-2.763,0.476-5.042,2.687-5.042c2.003,0,2.409,1.847,2.409,3.316h4.808v-6.671h-4.432
			v1.46h-0.065c-1.233-1.494-2.886-1.726-4.126-1.726c-4.993,0-7.271,3.671-7.281,8.75h-0.014c0,5.502,2.197,9.162,8.418,9.162
			c3.105,0,5.686-1.341,7.781-2.609l-1.618-3.544c-1.933,0.896-3.73,1.235-5.158,1.235
			C1272.481,53.201,1271.685,51.501,1271.685,48.87"/>
		<path fill="#EC1646" d="M1470.626,34.007c0.257,1.226,1.058,1.927,2.232,1.927c1.2,0,1.935-0.827,2.216-1.908l4.264,1.349
			c-1.371,2.669-3.454,4.035-6.508,4.035c-3.505,0-5.849-1.754-6.59-4.156L1470.626,34.007z M1470.508,49.552l4.542-9.053h7.184
			v3.656l-1.95,0.588v8.715l1.95,0.579v3.659h-8.997v-3.659l1.242-0.579v-4.665h-0.157l-4.705,8.902h-7.066v-3.598l1.954-0.588
			v-8.768l-1.954-0.588v-3.656h9.004v3.656l-1.244,0.588v4.81L1470.508,49.552L1470.508,49.552z"/>
		<path fill="#EC1646" d="M1321.225,47.509c0-1.186-0.093-3.967-2.477-3.967c-2.617,0-2.715,3.255-2.715,3.967H1321.225z
			 M1327.025,55.121c-2.09,1.588-4.852,3.014-8.049,3.014c-6.251,0-8.752-3.753-8.752-9.093c0-5.28,3.251-8.931,8.628-8.931
			c5.805,0,8.18,3.836,8.18,9.335c0,0.467-0.026,0.757-0.058,1.065h-10.94c0,1.84,1.12,2.798,3.637,2.798
			c1.925,0,3.587-0.507,5.509-1.415L1327.025,55.121z"/>
		<path fill="#EC1646" d="M1164.219,68.554l0.817-3.724h8.259l0.785,3.724H1164.219z M1166.013,60.361h6.33l0.558,2.632h-7.463
			L1166.013,60.361z M1166.732,57.098h4.918l0.418,1.966h-5.767L1166.732,57.098z M1167.308,54.478h3.787l0.358,1.686h-4.518
			L1167.308,54.478z M1167.629,52.998l0.126-0.471h2.901l0.126,0.488l0.168,0.787h-3.496L1167.629,52.998z M1168.196,50.981h2.451
			c-0.058,0.295-0.087,0.621-0.07,0.988h-0.014h-0.019h-2.666h-0.02C1167.939,51.597,1168.06,51.277,1168.196,50.981
			 M1179.22,73.339v-0.763l-7.366-19.096c-0.996-2.66-0.294-4.526,1.707-5.047l-0.102-0.007c-0.478,0-2.16,0.511-2.702,2.214
			l-0.005-0.016l-0.007,0.063c-0.005,0.012-0.013,0.03-0.017,0.043h-2.409c1.163-2.174,3.579-2.288,3.627-2.305h-0.308
			c-0.075,0.028-3.39,0.023-4.404,3.313l-0.318,0.812l-7.892,20.026v0.763h0.908v0.7l-0.908,1.738v0.763h1.641h1.802l1.142-5.198
			h11.066l1.104,5.198h2.538h0.904v-0.763l-0.91-1.738v-0.7C1178.311,73.339,1179.22,73.339,1179.22,73.339z"/>
	</g>
	<g>
		<g>
			<polygon fill="#EC1646" points="1915.982,41.042 1930.796,41.031 1930.796,37.208 1920.257,37.208 1920.257,30.526 
				1929.362,30.523 1929.362,26.792 1920.257,26.792 1920.257,21.54 1930.796,21.54 1930.796,17.704 1915.982,17.704 			"/>
			<polygon fill="#EC1646" points="2018.399,41.042 2033.234,41.042 2033.234,37.208 2022.69,37.208 2022.69,30.523 
				2031.785,30.523 2031.785,26.792 2022.69,26.792 2022.69,21.54 2033.234,21.54 2033.234,17.704 2018.399,17.704 			"/>
			<polygon fill="#EC1646" points="1967.861,26.792 1960.307,26.792 1960.307,17.704 1956.022,17.704 1956.022,41.042 
				1960.307,41.042 1960.307,30.526 1967.861,30.526 1967.861,41.042 1972.147,41.042 1972.147,17.704 1967.861,17.704 			"/>
			<polygon fill="#EC1646" points="1895.845,21.54 1902.001,21.54 1901.996,41.042 1906.384,41.042 1906.384,21.54 1912.52,21.54 
				1912.52,17.704 1895.845,17.704 			"/>
			<polygon fill="#EC1646" points="1951.7,17.704 1947.014,17.704 1942.997,25.154 1938.996,17.704 1934.304,17.704 
				1940.674,28.817 1933.627,41.042 1938.314,41.042 1942.992,32.525 1947.689,41.042 1952.372,41.042 1945.355,28.817 			"/>
			<path fill="#EC1646" d="M1990.113,35.305c0,1.031-0.691,1.904-1.632,2.071c-0.778,0.155-1.733,0.221-2.842,0.221
				c-1.108,0-2.069-0.066-2.831-0.221c-0.946-0.167-1.642-1.04-1.642-2.071V23.312c0-1.029,0.696-1.903,1.642-2.076
				c0.762-0.15,1.723-0.219,2.831-0.219s2.064,0.068,2.842,0.219c0.941,0.173,1.632,1.047,1.632,2.076V35.305z M1985.64,17.254
				c-4.845,0-8.764,1.052-8.764,5.709v12.679c0,4.662,3.919,5.725,8.764,5.725c4.84,0,8.759-1.063,8.759-5.725V22.964
				C1994.399,18.307,1990.479,17.254,1985.64,17.254"/>
			<path fill="#EC1646" d="M2046.706,28.337h-4.524v-6.761h4.524c2.527,0,3.529,1.105,3.529,3.381
				C2050.234,27.234,2049.232,28.337,2046.706,28.337 M2047.102,17.712l-9.202-0.008v23.337h4.28V32.21h4.921
				c5.16,0,7.61-3.241,7.61-7.254C2054.713,20.955,2052.263,17.712,2047.102,17.712"/>
			<path fill="#EC1646" d="M2066.67,37.163h-4.128v-6.67h4.128c2.532,0,3.523,1.019,3.523,3.292
				C2070.193,36.064,2069.202,37.163,2066.67,37.163 M2062.542,21.458h3.441c2.517,0,3.523,0.966,3.523,2.969
				c0,1.997-1.007,2.89-3.523,2.89h-3.441V21.458z M2071.825,28.565c1.439-1.125,2.15-2.76,2.15-4.529c0-3.711-2.44-6.324-7.6-6.324
				h-8.124v23.33h8.815c5.165,0,7.61-3.253,7.61-7.257C2074.677,31.586,2073.747,29.694,2071.825,28.565"/>
			<path fill="#EC1646" d="M2005.441,17.333c-1.134,0.104-2.308,0.308-3.259,0.666c-2.059,0.77-3.381,2.26-3.381,4.965v12.702
				c0,2.702,1.322,4.196,3.381,4.964c0.951,0.36,2.125,0.564,3.259,0.673c2.964,0.28,8.668-0.48,8.668-0.48v-3.762
				c0,0-6.879,0.711-9.38,0.346c-0.951-0.147-1.631-1.06-1.631-2.08V23.312c0-1.032,0.681-1.937,1.631-2.076
				c2.501-0.372,9.38,0.34,9.38,0.34v-3.757C2014.109,17.818,2008.405,17.051,2005.441,17.333z"/>
		</g>
	</g>
	<polygon fill="#EC1646" points="1837,80 1837,74 1843,74 1843,68 1837,68 1837,62 1831,62 1831,68 1825,68 1825,74 1831,74 
		1831,80 	"/>
	<polygon fill="#EC1646" points="1843,88 1837,88 1837,82 1831,82 1831,88 1825,88 1825,95 1843,95 	"/>
	<polygon fill="#EC1646" points="1816,38 1816,32 1822,32 1822,26 1816,26 1816,20 1810,20 1810,26 1804,26 1804,32 1810,32 
		1810,38 	"/>
	<polygon fill="#EC1646" points="1831,20 1831,26 1825,26 1825,32 1831,32 1831,38 1837,38 1837,32 1843,32 1843,26 1837,26 
		1837,20 	"/>
	<polygon fill="#EC1646" points="1858,38 1858,32 1864,32 1864,26 1858,26 1858,20 1852,20 1852,26 1846,26 1846,32 1852,32 
		1852,38 	"/>
	<polygon fill="#EC1646" points="1843,47 1837,47 1837,41 1831,41 1831,47 1825,47 1825,53 1831,53 1831,59 1837,59 1837,53 
		1843,53 	"/>
	<polygon fill="#EC1646" points="1866,12 1872,12 1872,18 1879,18 1879,5 1866,5 	"/>
	<polygon fill="#EC1646" points="1879,38 1879,20 1872,20 1872,26 1866,26 1866,32 1872,32 1872,38 	"/>
	<polygon fill="#EC1646" points="1825,5 1825,12 1831,12 1831,18 1837,18 1837,12 1843,12 1843,5 	"/>
	<polygon fill="#EC1646" points="1816,18 1816,12 1822,12 1822,5 1804,5 1804,12 1810,12 1810,18 	"/>
	<polygon fill="#EC1646" points="1789,20 1789,38 1796,38 1796,32 1802,32 1802,26 1796,26 1796,20 	"/>
	<polygon fill="#EC1646" points="1872,41 1872,47 1858,47 1858,41 1852,41 1852,47 1846,47 1846,53 1852,53 1852,68 1846,68 
		1846,74 1852,74 1852,88 1846,88 1846,95 1879,95 1879,41 	"/>
	<polygon fill="#EC1646" points="1822,88 1816,88 1816,74 1822,74 1822,68 1816,68 1816,53 1822,53 1822,47 1816,47 1816,41 
		1810,41 1810,47 1796,47 1796,41 1789,41 1789,95 1822,95 	"/>
	<polygon fill="#EC1646" points="1796,18 1796,12 1802,12 1802,5 1789,5 1789,18 	"/>
	<polygon fill="#EC1646" points="1864,5 1846,5 1846,12 1852,12 1852,18 1858,18 1858,12 1864,12 	"/>
</g>
</svg>
