<?xml version="1.0" encoding="utf-8"?>
<!-- Generator: Adobe Illustrator 17.0.0, SVG Export Plug-In . SVG Version: 6.00 Build 0)  -->
<!DOCTYPE svg PUBLIC "-//W3C//DTD SVG 1.1//EN" "http://www.w3.org/Graphics/SVG/1.1/DTD/svg11.dtd">
<svg version="1.1" id="Слой_1" xmlns="http://www.w3.org/2000/svg" xmlns:xlink="http://www.w3.org/1999/xlink" x="0px" y="0px"
	 width="109.854px" height="34.744px" viewBox="0 0 109.854 34.744" enable-background="new 0 0 109.854 34.744"
	 xml:space="preserve">
<g>
	<polygon fill="#A1A8B1" points="18.577,28.813 18.577,26.528 20.863,26.528 20.863,24.135 18.577,24.135 18.577,21.851 
		16.178,21.851 16.178,24.135 13.897,24.135 13.897,26.528 16.178,26.528 16.178,28.813 	"/>
	<polygon fill="#A1A8B1" points="20.864,32.091 18.578,32.091 18.578,29.81 16.178,29.81 16.178,32.091 13.897,32.091 
		13.897,34.744 20.864,34.744 	"/>
	<g>
		<polygon fill="#A1A8B1" points="10.616,12.898 10.616,10.611 12.903,10.611 12.903,8.214 10.616,8.214 10.616,5.931 8.22,5.931 
			8.22,8.214 5.934,8.214 5.934,10.611 8.22,10.611 8.22,12.898 		"/>
		<polygon fill="#A1A8B1" points="16.178,5.931 16.178,8.214 13.897,8.214 13.897,10.611 16.178,10.611 16.178,12.898 
			18.578,12.898 18.578,10.611 20.864,10.611 20.864,8.214 18.578,8.214 18.578,5.931 		"/>
		<polygon fill="#A1A8B1" points="26.538,12.898 26.538,10.611 28.819,10.611 28.819,8.214 26.538,8.214 26.538,5.931 24.14,5.931 
			24.14,8.214 21.856,8.214 21.856,10.611 24.14,10.611 24.14,12.898 		"/>
		<polygon fill="#A1A8B1" points="20.864,16.173 18.578,16.173 18.578,13.892 16.178,13.892 16.178,16.173 13.897,16.173 
			13.897,18.57 16.178,18.57 16.178,20.856 18.578,20.856 18.578,18.57 20.864,18.57 		"/>
		<polygon fill="#A1A8B1" points="29.816,2.65 32.098,2.65 32.098,4.935 34.743,4.935 34.743,0 29.816,0 		"/>
		<polygon fill="#A1A8B1" points="34.743,12.898 34.743,5.931 32.1,5.931 32.1,8.214 29.816,8.214 29.816,10.611 32.1,10.611 
			32.1,12.898 		"/>
		<polygon fill="#A1A8B1" points="13.897,0 13.897,2.65 16.178,2.65 16.178,4.935 18.577,4.935 18.577,2.65 20.863,2.65 20.863,0 		
			"/>
		<polygon fill="#A1A8B1" points="10.616,4.935 10.616,2.65 12.903,2.65 12.903,0 5.934,0 5.934,2.65 8.22,2.65 8.22,4.935 		"/>
		<polygon fill="#A1A8B1" points="0.001,5.931 0.001,12.898 2.658,12.898 2.658,10.611 4.938,10.611 4.938,8.214 2.658,8.214 
			2.658,5.931 		"/>
		<polygon fill="#A1A8B1" points="32.098,13.892 32.098,16.173 26.538,16.173 26.538,13.892 24.14,13.892 24.14,16.173 
			21.856,16.173 21.856,18.57 24.14,18.57 24.14,24.135 21.856,24.135 21.856,26.528 24.14,26.528 24.14,32.091 21.856,32.091 
			21.856,34.744 34.743,34.744 34.743,13.892 		"/>
		<polygon fill="#A1A8B1" points="12.902,32.091 10.616,32.091 10.616,26.528 12.902,26.528 12.902,24.134 10.616,24.134 
			10.616,18.569 12.902,18.569 12.902,16.175 10.616,16.175 10.616,13.89 8.22,13.89 8.22,16.175 2.657,16.175 2.657,13.89 
			0.001,13.89 0.001,34.744 12.902,34.744 		"/>
		<polygon fill="#A1A8B1" points="2.657,4.935 2.657,2.65 4.938,2.65 4.938,0 0,0 0,4.935 		"/>
		<polygon fill="#A1A8B1" points="28.819,0 21.858,0 21.858,2.65 24.139,2.65 24.139,4.935 26.538,4.935 26.538,2.65 28.819,2.65 		
			"/>
		<polygon fill="#A1A8B1" points="48.886,13.901 54.576,13.898 54.576,12.429 50.528,12.429 50.528,9.861 54.025,9.86 54.025,8.427 
			50.528,8.427 50.528,6.409 54.576,6.409 54.576,4.936 48.886,4.936 		"/>
		<polygon fill="#A1A8B1" points="88.232,13.901 93.933,13.901 93.933,12.429 89.882,12.429 89.882,9.86 93.376,9.86 93.376,8.427 
			89.882,8.427 89.882,6.409 93.933,6.409 93.933,4.936 88.232,4.936 		"/>
		<polygon fill="#A1A8B1" points="68.817,8.427 65.915,8.427 65.915,4.936 64.268,4.936 64.268,13.901 65.915,13.901 65.915,9.861 
			68.817,9.861 68.817,13.901 70.463,13.901 70.463,4.936 68.817,4.936 		"/>
		<polygon fill="#A1A8B1" points="41.149,6.409 43.514,6.409 43.512,13.901 45.197,13.901 45.197,6.409 47.556,6.409 47.556,4.936 
			41.149,4.936 		"/>
		<polygon fill="#A1A8B1" points="62.607,4.936 60.807,4.936 59.264,7.798 57.726,4.936 55.925,4.936 58.371,9.205 55.664,13.901 
			57.466,13.901 59.263,10.63 61.066,13.901 62.866,13.901 60.171,9.205 		"/>
		<path fill="#A1A8B1" d="M77.365,11.697c0,0.396-0.265,0.731-0.626,0.796c-0.3,0.059-0.667,0.085-1.092,0.085
			c-0.427,0-0.795-0.025-1.089-0.085c-0.363-0.064-0.63-0.399-0.63-0.796V7.09c0-0.395,0.267-0.731,0.63-0.798
			c0.294-0.058,0.662-0.084,1.089-0.084c0.425,0,0.792,0.026,1.092,0.084c0.361,0.066,0.626,0.402,0.626,0.798V11.697z
			 M75.647,4.763c-1.861,0-3.367,0.404-3.367,2.193v4.871c0,1.791,1.506,2.199,3.367,2.199c1.859,0,3.365-0.408,3.365-2.199V6.956
			C79.013,5.167,77.507,4.763,75.647,4.763"/>
		<path fill="#A1A8B1" d="M99.108,9.021H97.37V6.423h1.738c0.97,0,1.354,0.425,1.354,1.299
			C100.463,8.597,100.078,9.021,99.108,9.021 M99.261,4.938l-3.535-0.003v8.966h1.645v-3.393h1.891c1.982,0,2.924-1.245,2.924-2.787
			C102.184,6.185,101.243,4.938,99.261,4.938"/>
		<path fill="#A1A8B1" d="M106.778,12.411h-1.587V9.849h1.587c0.972,0,1.354,0.392,1.354,1.265
			C108.132,11.989,107.75,12.411,106.778,12.411 M105.191,6.378h1.322c0.968,0,1.354,0.371,1.354,1.141
			c0,0.768-0.386,1.11-1.354,1.11h-1.322V6.378z M108.759,9.108c0.553-0.433,0.826-1.061,0.826-1.74c0-1.426-0.938-2.43-2.921-2.43
			h-3.121v8.963h3.388c1.984,0,2.924-1.25,2.924-2.788C109.854,10.269,109.497,9.542,108.759,9.108"/>
		<path fill="#A1A8B1" d="M83.255,4.793c-0.437,0.04-0.887,0.118-1.252,0.256c-0.792,0.296-1.299,0.868-1.299,1.907v4.88
			c0,1.038,0.507,1.612,1.299,1.907c0.365,0.139,0.815,0.217,1.252,0.259c1.139,0.107,3.33-0.185,3.33-0.185v-1.445
			c0,0-2.644,0.273-3.604,0.133c-0.364-0.057-0.627-0.407-0.627-0.799V7.09c0-0.396,0.263-0.744,0.627-0.798
			c0.961-0.143,3.604,0.131,3.604,0.131V4.979C86.585,4.979,84.394,4.685,83.255,4.793z"/>
	</g>
</g>
</svg>
