<?xml version="1.0" encoding="utf-8"?>
<!-- Generator: Adobe Illustrator 17.0.0, SVG Export Plug-In . SVG Version: 6.00 Build 0)  -->
<!DOCTYPE svg PUBLIC "-//W3C//DTD SVG 1.1//EN" "http://www.w3.org/Graphics/SVG/1.1/DTD/svg11.dtd">
<svg version="1.1" id="Слой_1" xmlns="http://www.w3.org/2000/svg" xmlns:xlink="http://www.w3.org/1999/xlink" x="0px" y="0px"
	 width="64.131px" height="25.15px" viewBox="0 0 64.131 25.15" enable-background="new 0 0 64.131 25.15" xml:space="preserve">
<polygon fill="#A1A8B1" points="4.489,12.323 8.803,0 12.323,0 12.323,12.323 "/>
<polygon fill="#A1A8B1" points="12.826,12.323 20.66,12.323 16.347,0 12.826,0 12.826,12.323 "/>
<polyline fill="#A1A8B1" points="25.149,25.15 20.836,12.825 20.836,12.825 12.826,12.825 12.826,20.118 17.102,20.118 
	18.861,25.15 "/>
<polyline fill="#A1A8B1" points="6.293,25.15 8.048,20.118 12.323,20.118 12.323,12.825 12.323,12.825 4.312,12.825 0,25.15 "/>
<polygon fill="#A1A8B1" points="34.203,12.323 34.203,0 26.91,0 26.91,12.323 34.203,12.323 "/>
<path fill="#A1A8B1" d="M36.969,25.15c4.168,0,7.546-3.379,7.546-7.546c0-1.814-0.642-3.478-1.709-4.779h-8.1l0,0V25.15"/>
<path fill="#A1A8B1" d="M34.706,12.323h7.647c-0.732-0.746-1.618-1.343-2.608-1.734c1.722-0.97,2.883-2.814,2.883-4.931
	C42.628,2.534,40.095,0,36.969,0h-2.263V12.323L34.706,12.323z"/>
<polyline fill="#A1A8B1" points="34.203,25.15 34.203,12.825 26.91,12.825 26.91,25.15 "/>
<polygon fill="#A1A8B1" points="53.82,12.323 53.82,0 46.526,0 46.526,12.323 53.82,12.323 "/>
<path fill="#A1A8B1" d="M56.586,25.15c4.167,0,7.545-3.379,7.545-7.546c0-1.814-0.641-3.478-1.708-4.779h-8.101V25.15"/>
<path fill="#A1A8B1" d="M54.322,12.323h7.648c-0.732-0.746-1.619-1.343-2.609-1.734c1.721-0.97,2.883-2.814,2.883-4.931
	C62.244,2.534,59.711,0,56.586,0h-2.264V12.323z"/>
<polyline fill="#A1A8B1" points="53.82,25.15 53.82,12.825 46.526,12.825 46.526,25.15 "/>
</svg>
