<?xml version="1.0" encoding="utf-8"?>
<!-- Generator: Adobe Illustrator 17.0.0, SVG Export Plug-In . SVG Version: 6.00 Build 0)  -->
<!DOCTYPE svg PUBLIC "-//W3C//DTD SVG 1.1//EN" "http://www.w3.org/Graphics/SVG/1.1/DTD/svg11.dtd">
<svg version="1.1" id="Слой_1" xmlns="http://www.w3.org/2000/svg" xmlns:xlink="http://www.w3.org/1999/xlink" x="0px" y="0px"
	 width="19.02px" height="23.588px" viewBox="0 0 19.02 23.588" enable-background="new 0 0 19.02 23.588" xml:space="preserve">
<g>
	<path fill="#EC1646" d="M19.02,9.519c0-5.251-4.251-9.509-9.499-9.519l0,0C9.517,0,9.513,0,9.509,0s-0.007,0-0.01,0l0,0
		C4.251,0.011,0,4.269,0,9.519c0,1.632,0.412,3.166,1.134,4.508H1.133l0.003,0.003l1.225,1.751l4.432,6.335
		c0.58,0.88,1.575,1.461,2.707,1.47v0.002c0.003,0,0.007-0.002,0.01-0.002c0.004,0,0.007,0.002,0.011,0.002v-0.002
		c1.132-0.009,2.127-0.59,2.707-1.47l4.432-6.335l1.224-1.751l0.002-0.003h-0.001C18.608,12.686,19.02,11.151,19.02,9.519z
		 M9.509,13.966c-2.424,0-4.39-1.964-4.39-4.39c0-2.423,1.966-4.39,4.39-4.39s4.389,1.967,4.389,4.39
		C13.899,12.002,11.934,13.966,9.509,13.966z"/>
</g>
</svg>
