<?xml version="1.0" encoding="utf-8"?>
<!-- Generator: Adobe Illustrator 17.0.0, SVG Export Plug-In . SVG Version: 6.00 Build 0)  -->
<!DOCTYPE svg PUBLIC "-//W3C//DTD SVG 1.1//EN" "http://www.w3.org/Graphics/SVG/1.1/DTD/svg11.dtd">
<svg version="1.1" id="Слой_1" xmlns="http://www.w3.org/2000/svg" xmlns:xlink="http://www.w3.org/1999/xlink" x="0px" y="0px"
	 width="100.219px" height="90.273px" viewBox="0 0 100.219 90.273" enable-background="new 0 0 100.219 90.273"
	 xml:space="preserve">
<g>
	<path fill="#9197A1" d="M84.577,75.737H15.596C7.188,75.737,0,68.238,0,59.762V15.773C0,7.203,7.188,0,15.596,0h68.981
		c8.336,0,15.643,7.203,15.643,15.773v43.989C100.219,68.238,92.913,75.737,84.577,75.737z M15.596,9.18
		c-3.06,0-5.65,3.382-5.65,6.593v43.989c0,3.179,2.536,6.03,5.65,6.03h68.981c3.1,0,5.697-2.795,5.697-6.03V15.773
		c0-3.271-2.652-6.593-5.697-6.593H15.596z"/>
	<path fill="#9197A1" d="M75.518,90.273H24.519c-2.642,0-4.782-2.332-4.782-4.973c0-2.641,2.141-4.973,4.782-4.973h50.999
		c2.641,0,4.781,2.333,4.781,4.973C80.299,87.94,78.159,90.273,75.518,90.273z"/>
</g>
</svg>
