<?xml version="1.0" encoding="utf-8"?>
<!-- Generator: Adobe Illustrator 16.0.0, SVG Export Plug-In . SVG Version: 6.00 Build 0)  -->
<!DOCTYPE svg PUBLIC "-//W3C//DTD SVG 1.1//EN" "http://www.w3.org/Graphics/SVG/1.1/DTD/svg11.dtd">
<svg version="1.1" id="Слой_1" xmlns="http://www.w3.org/2000/svg" xmlns:xlink="http://www.w3.org/1999/xlink" x="0px" y="0px"
	 width="14px" height="14px" viewBox="0 0 14 14" enable-background="new 0 0 14 14" xml:space="preserve">
<g>
	<g>
		<path fill="#A1ABB4" d="M5.715,2.011c2.029,0,3.679,1.645,3.679,3.666c0,2.021-1.65,3.665-3.679,3.665
			c-2.028,0-3.679-1.644-3.679-3.665C2.037,3.655,3.687,2.011,5.715,2.011 M5.715,0.011c-3.137,0-5.679,2.537-5.679,5.666
			c0,3.127,2.542,5.665,5.679,5.665c3.136,0,5.679-2.538,5.679-5.665C11.395,2.547,8.852,0.011,5.715,0.011L5.715,0.011z"/>
	</g>
</g>
<line fill="none" stroke="#A1ABB4" stroke-width="2" stroke-linecap="round" stroke-linejoin="round" stroke-miterlimit="10" x1="9.201" y1="9.236" x2="12.913" y2="12.907"/>
</svg>
