<?xml version="1.0" encoding="utf-8"?>
<!-- Generator: Adobe Illustrator 16.0.0, SVG Export Plug-In . SVG Version: 6.00 Build 0)  -->
<!DOCTYPE svg PUBLIC "-//W3C//DTD SVG 1.1//EN" "http://www.w3.org/Graphics/SVG/1.1/DTD/svg11.dtd">
<svg version="1.1" id="Слой_1" xmlns="http://www.w3.org/2000/svg" xmlns:xlink="http://www.w3.org/1999/xlink" x="0px" y="0px"
	 width="460px" height="560px" viewBox="0 0 460 560" enable-background="new 0 0 460 560" xml:space="preserve">
<g opacity="0.8" enable-background="new    ">
	<g>
		<g>
			<defs>
				<path id="SVGID_1_" d="M667.807,488.548c-14.635-0.14-28.889-2.222-42.797-6.41c-14.336-4.301-26.937-11.041-37.772-20.256
					c-10.812-9.187-19.485-21.045-25.989-35.617c-6.179-13.825-9.33-30.399-9.642-49.54v-45.02h78.539v-78.554h-78.539V174.09
					h-92.313V89.078c-13.644,0-13.738-0.03-13.876-0.03c-29.157,0-56.361,4.188-81.708,12.555
					c-25.36,8.38-47.445,20.523-66.316,36.435c-18.823,15.939-33.833,35.253-44.858,57.917
					c-11.061,22.668-16.557,48.597-16.557,77.771v90.021h-0.047v9.847c0,20.524-3.229,38.057-9.734,52.658
					c-6.521,14.567-15.187,26.444-26.023,35.631c-10.803,9.215-23.313,15.926-37.381,20.256
					c-13.779,4.207-28.053,6.304-42.858,6.425c-26.462-46.183-41.663-99.646-41.663-156.684
					c0-174.312,141.294-315.624,315.621-315.624c174.282,0,315.596,141.313,315.596,315.624
					C709.486,388.916,694.286,442.38,667.807,488.548 M182.753,566.443c6.459-1.531,12.806-3.295,19.016-5.326
					c25.594-8.381,47.676-20.51,66.297-36.469c18.584-15.873,33.269-35.502,44.041-58.705
					c10.808-23.229,16.178-49.414,16.178-78.584v-6.949h0.029v-91.296c0-19.975,3.262-37.255,9.718-51.842
					c6.523-14.57,15.063-26.59,25.613-36.038c10.589-9.451,22.906-16.335,36.988-20.637c14.145-4.332,29.074-6.49,44.783-6.49
					h13.717v222.622h0.226c1.036,25.439,6.329,48.519,15.938,69.229c10.805,23.203,25.713,42.816,44.866,58.689
					c19.152,15.959,41.521,28.102,67.136,36.483c5.89,1.92,11.908,3.576,18.004,5.037c-55.967,50.534-130.101,81.299-211.411,81.299
					C312.671,647.47,238.671,616.814,182.753,566.443 M393.892-61.416c-216.888,0-393.325,176.422-393.325,393.295
					c0,216.857,176.438,393.294,393.324,393.294c216.846,0,393.284-176.437,393.284-393.294
					C787.176,115.006,610.736-61.416,393.892-61.416"/>
			</defs>
			<clipPath id="SVGID_2_">
				<use xlink:href="#SVGID_1_"  overflow="visible"/>
			</clipPath>
			<rect x="-101.824" y="1" clip-path="url(#SVGID_2_)" fill="#ED1F47" width="560.952" height="560"/>
		</g>
	</g>
</g>
</svg>
