<?xml version="1.0" encoding="utf-8"?>
<!-- Generator: Adobe Illustrator 16.0.0, SVG Export Plug-In . SVG Version: 6.00 Build 0)  -->
<!DOCTYPE svg PUBLIC "-//W3C//DTD SVG 1.1//EN" "http://www.w3.org/Graphics/SVG/1.1/DTD/svg11.dtd">
<svg version="1.1" id="Слой_1" xmlns="http://www.w3.org/2000/svg" xmlns:xlink="http://www.w3.org/1999/xlink" x="0px" y="0px"
	 width="790px" height="560px" viewBox="0 0 790 560" enable-background="new 0 0 790 560" xml:space="preserve">
<g>
	<g>
		<g>
			<g>
				<g>
					<g>
						<defs>
							<rect id="SVGID_1_" x="-194.517" y="0.159" width="1180" height="559.892"/>
						</defs>
						<clipPath id="SVGID_2_">
							<use xlink:href="#SVGID_1_"  overflow="visible"/>
						</clipPath>
						<g opacity="0.4" clip-path="url(#SVGID_2_)">
							<path fill="#FFFFFF" d="M395.521-62.294c-72.092,0-139.698,19.511-197.849,53.51C203.843-8.727,208-8.633,208-8.5
								c0.003,1.563,0.037,3.125,0.054,4.688c1.313,0.012,4.603,0.052,8.566,0.099c0.125-0.596,0.245-1.192,0.379-1.787
								c0.077-0.342,9.801-0.229,9.226-0.223c7.424-0.074,14.849-0.093,22.274-0.093c0.849,0,8.114,0.229,15.454,0.393
								c0.023-0.696,0.04-1.39,0.046-2.077c0.006-0.661,63.002-0.292,63,0c-0.011,1.247-0.053,2.511-0.117,3.787
								c5.917-0.091,15.527-0.14,25.19-0.145C352.05-4.071,352.023-4.285,352-4.5c0.013,0.125,29.852-0.315,31.5-0.315
								c1.714,0,31.409-0.548,31.5,0.315c0.059,0.557,0.126,1.112,0.188,1.668C433.721-2.912,459-2.802,459-2.5v24.271
								c143.861,29.387,252.116,156.666,252.116,309.23c-0.003,57.037-15.203,110.502-41.682,156.67
								c-14.635-0.142-28.889-2.223-42.797-6.411c-14.336-4.301-26.938-11.041-37.771-20.256
								c-10.813-9.188-19.484-21.045-25.988-35.617c-6.18-13.826-9.33-30.4-9.643-49.539v-45.021h78.539v-78.554h-78.539V173.21
								h-92.313v-0.462c-0.296,0.004-0.614,0.007-0.923,0.011v0.47h0.762V395.85h0.227c1.037,25.438,6.33,48.519,15.938,69.229
								c10.807,23.203,25.711,42.815,44.863,58.689c19.152,15.959,41.521,28.103,67.137,36.481
								c5.891,1.921,11.907,3.577,18.004,5.038c-55.967,50.533-130.102,81.3-211.408,81.3c-68.5,0.004-131.862-21.8-183.574-58.847
								c-6.483,0.054-12.966,0.074-19.449,0.074c-4.86,0-9.719-0.016-14.579-0.042c0.967,2.928,1.986,5.84,3.079,8.727
								c-0.032-0.085-9.861,0.229-9.226,0.223c-7.424,0.074-14.849,0.093-22.274,0.093s-14.85-0.019-22.274-0.093
								c0.465,0.005-9.06,0.218-9.226-0.223c-3.534-9.338-6.398-18.918-8.729-28.639c-9.845,0.006-19.252-0.037-24.342-0.149
								c0.141,1.623,0.272,3.247,0.426,4.869c72.042,92.274,184.288,151.715,310.168,151.715
								c216.844,0,393.281-176.438,393.281-393.295C788.804,114.128,612.364-62.294,395.521-62.294z"/>
						</g>
					</g>
				</g>
			</g>
		</g>
	</g>
</g>
<g opacity="0.8" enable-background="new    ">
	<g>
		<g>
			<g>
				<defs>
					<path id="SVGID_3_" d="M669.807,487.548c-14.635-0.14-28.889-2.222-42.797-6.41c-14.336-4.301-26.938-11.041-37.772-20.256
						c-10.812-9.187-19.484-21.045-25.989-35.617c-6.179-13.825-9.329-30.398-9.642-49.54v-45.02h78.539v-78.554h-78.539V173.09
						h-92.313V88.078c-13.645,0-13.738-0.03-13.876-0.03c-29.157,0-56.361,4.188-81.708,12.555
						c-25.36,8.38-47.445,20.523-66.316,36.435c-18.823,15.939-33.833,35.253-44.857,57.917
						c-11.061,22.668-16.558,48.597-16.558,77.771v90.021h-0.046v9.847c0,20.524-3.229,38.057-9.734,52.658
						c-6.521,14.567-15.187,26.444-26.022,35.631c-10.803,9.215-23.313,15.926-37.381,20.256
						c-13.779,4.207-28.053,6.305-42.858,6.426c-26.462-46.184-41.663-99.646-41.663-156.685
						c0-174.312,141.294-315.624,315.621-315.624c174.282,0,315.596,141.313,315.596,315.624
						C711.486,387.916,696.285,441.38,669.807,487.548 M184.753,565.443c6.459-1.531,12.806-3.295,19.016-5.326
						c25.594-8.381,47.676-20.51,66.297-36.469c18.585-15.873,33.27-35.502,44.042-58.705
						c10.809-23.229,16.178-49.414,16.178-78.584v-6.949h0.029v-91.296c0-19.975,3.262-37.255,9.718-51.842
						c6.523-14.57,15.063-26.59,25.613-36.038c10.589-9.451,22.906-16.335,36.988-20.637c14.145-4.332,29.075-6.49,44.784-6.49
						h13.716v222.622h0.226c1.036,25.439,6.329,48.52,15.938,69.229c10.805,23.203,25.713,42.816,44.865,58.689
						c19.152,15.959,41.521,28.102,67.137,36.482c5.89,1.92,11.906,3.576,18.004,5.037
						c-55.967,50.534-130.102,81.299-211.411,81.299C314.671,646.47,240.671,615.814,184.753,565.443 M395.892-62.416
						c-216.888,0-393.325,176.422-393.325,393.295c0,216.857,176.438,393.294,393.324,393.294
						c216.846,0,393.284-176.437,393.284-393.294C789.176,114.006,612.736-62.416,395.892-62.416"/>
				</defs>
				<clipPath id="SVGID_4_">
					<use xlink:href="#SVGID_3_"  overflow="visible"/>
				</clipPath>
				<rect x="-99.824" clip-path="url(#SVGID_4_)" fill="#ED1F47" width="560.952" height="560"/>
			</g>
		</g>
	</g>
</g>
</svg>
